<?xml version="1.0" encoding="UTF-8"?>
<svg id="a" data-name="Layer 1" xmlns="http://www.w3.org/2000/svg" width="704.72" height="711.17" viewBox="0 0 704.72 711.17">
  <path d="M315.27,678.34c-.93-.11-1.87-.23-2.8-.34-1.39-.17-2.78-.34-4.16-.53-.98-.13-1.96-.28-2.93-.42-1.37-.2-2.73-.4-4.1-.62-.42-.07-.84-.14-1.26-.21-.56-.09-1.12-.18-1.68-.28-1.35-.23-2.69-.45-4.03-.7-.99-.18-1.97-.37-2.95-.56-1.33-.25-2.65-.51-3.97-.78-.92-.19-1.83-.38-2.75-.58-.07-.01-.14-.03-.21-.04-1.31-.28-2.61-.56-3.92-.86-.99-.22-1.98-.46-2.97-.69-1.28-.3-2.57-.61-3.85-.93-.37-.09-.74-.19-1.11-.29-.62-.16-1.24-.32-1.86-.48-1.27-.33-2.53-.66-3.79-1.01-.99-.27-1.98-.55-2.97-.83-1.25-.35-2.49-.71-3.73-1.08-.99-.29-1.99-.6-2.98-.9-1.22-.38-2.44-.76-3.66-1.14-.32-.1-.64-.21-.96-.31-.68-.22-1.35-.44-2.03-.66-1.2-.4-2.39-.8-3.58-1.21-1-.34-2-.69-2.99-1.05-1.18-.42-2.35-.84-3.52-1.27-.58-.21-1.16-.43-1.74-.65-.42-.16-.84-.31-1.26-.47-1.15-.44-2.3-.88-3.44-1.33-.78-.31-1.55-.62-2.33-.93-.23-.09-.46-.18-.68-.27-1.12-.45-2.24-.92-3.36-1.38-.56-.24-1.13-.48-1.69-.71-.44-.19-.89-.37-1.33-.56-1.09-.47-2.19-.95-3.27-1.43-.88-.39-1.76-.78-2.64-1.18-.13-.06-.27-.12-.4-.18-1.06-.48-2.12-.98-3.18-1.47-.43-.2-.87-.41-1.3-.62-.59-.28-1.18-.55-1.76-.83-1.03-.5-2.06-1-3.08-1.51-.37-.18-.73-.37-1.09-.55-.67-.33-1.33-.66-1.99-1-1-.51-1.99-1.02-2.98-1.54-1.04-.54-2.08-1.09-3.12-1.64-.96-.51-1.91-1.03-2.86-1.55-1.06-.58-2.11-1.16-3.16-1.75-.92-.51-1.82-1.04-2.73-1.56-.25-.15-.5-.29-.76-.44-.82-.47-1.64-.94-2.45-1.42-.87-.51-1.74-1.04-2.6-1.56-1.09-.66-2.18-1.31-3.26-1.98-.53-.33-1.06-.66-1.59-1-.52-.32-1.03-.65-1.54-.97-.78-.49-1.56-.98-2.33-1.48-.98-.63-1.95-1.28-2.93-1.92-.74-.49-1.48-.99-2.22-1.48-.99-.67-1.97-1.34-2.95-2.01,0,0,0,0,0,0-.7-.48-1.39-.97-2.09-1.46-.96-.67-1.91-1.35-2.86-2.03-.14-.1-.28-.2-.43-.31-.53-.39-1.06-.78-1.6-1.16-1-.73-1.99-1.45-2.98-2.19-.22-.17-.44-.34-.67-.5-.24-.18-.48-.37-.73-.55-2.67-2.02-5.32-4.08-7.93-6.18-.21-.17-.42-.33-.62-.5-.23-.19-.46-.38-.69-.57-.32-.26-.63-.52-.94-.78-.84-.69-1.68-1.39-2.52-2.08-.39-.33-.79-.65-1.18-.98-1.82-1.54-3.62-3.1-5.4-4.67-.51-.45-1-.9-1.51-1.35-1.28-1.15-2.56-2.3-3.82-3.46-.61-.56-1.21-1.13-1.82-1.7-1.14-1.07-2.28-2.15-3.41-3.23-.64-.62-1.28-1.24-1.91-1.86-1.08-1.06-2.16-2.13-3.23-3.21-.63-.64-1.27-1.28-1.9-1.93-1.07-1.09-2.12-2.19-3.17-3.3-.5-.53-1.01-1.06-1.51-1.6-.18-.19-.36-.38-.53-.57-1.01-1.08-2.01-2.17-3-3.27-.34-.38-.68-.75-1.02-1.13-.33-.37-.67-.75-1-1.12-1.07-1.21-2.14-2.42-3.19-3.64-.09-.1-.18-.21-.27-.31-.46-.54-.93-1.08-1.39-1.62-1.1-1.3-2.2-2.6-3.28-3.92-.48-.58-.95-1.15-1.42-1.73-1.09-1.35-2.17-2.7-3.24-4.06-.36-.46-.72-.92-1.08-1.38-.28-.37-.56-.74-.85-1.1-.91-1.17-1.8-2.35-2.69-3.54-.2-.26-.4-.52-.59-.79-.45-.6-.88-1.2-1.33-1.8-.91-1.24-1.82-2.49-2.72-3.75-.53-.75-1.06-1.5-1.58-2.25-.86-1.22-1.71-2.45-2.55-3.69-.53-.77-1.05-1.55-1.57-2.32-.83-1.24-1.65-2.5-2.46-3.75-.5-.77-1-1.54-1.49-2.31-.83-1.31-1.65-2.63-2.47-3.96-.41-.67-.82-1.33-1.23-2-.15-.26-.31-.51-.46-.77-.78-1.3-1.55-2.6-2.31-3.9-.24-.4-.48-.8-.71-1.21-.32-.56-.64-1.12-.95-1.68-.84-1.48-1.67-2.95-2.49-4.44-.4-.73-.79-1.46-1.19-2.19-.77-1.42-1.52-2.85-2.27-4.28-.37-.71-.73-1.42-1.09-2.13-.08-.16-.16-.32-.25-.49-.67-1.31-1.33-2.63-1.98-3.95-.28-.57-.55-1.14-.83-1.71-.2-.42-.4-.84-.6-1.26-.59-1.24-1.18-2.48-1.75-3.72-.19-.41-.38-.82-.57-1.24-.27-.59-.54-1.18-.81-1.77-.57-1.26-1.13-2.53-1.68-3.8-.1-.24-.2-.47-.31-.71-.32-.74-.64-1.49-.96-2.23-.57-1.34-1.13-2.69-1.68-4.05,0-.02-.02-.04-.03-.06-.36-.88-.72-1.77-1.07-2.65-.56-1.41-1.11-2.83-1.65-4.26-.33-.85-.65-1.7-.97-2.56-.58-1.57-1.15-3.16-1.71-4.74-.26-.71-.51-1.42-.76-2.14-.79-2.3-1.56-4.6-2.31-6.92-.06-.18-.11-.37-.17-.55-.15-.46-.28-.92-.42-1.37-.77-2.46-1.51-4.93-2.22-7.41-.07-.24-.13-.48-.2-.72-.68-2.4-1.34-4.82-1.97-7.24-.34-1.32-.68-2.64-1.01-3.96-.22-.9-.43-1.8-.65-2.7-.02-.09-.04-.19-.07-.28-.33-1.41-.66-2.83-.97-4.25-.16-.72-.31-1.44-.47-2.16-.07-.34-.15-.69-.22-1.03-.29-1.38-.57-2.76-.84-4.15-.11-.56-.22-1.11-.32-1.67-.1-.55-.21-1.09-.31-1.64-.26-1.39-.51-2.78-.75-4.18-.06-.37-.13-.74-.19-1.11-.12-.73-.25-1.47-.37-2.2-.24-1.5-.47-3.01-.69-4.52-.01-.09-.03-.18-.04-.27-.13-.91-.27-1.82-.4-2.74-.22-1.61-.43-3.23-.62-4.85-.14-1.13-.29-2.27-.42-3.41-.42-3.7-.79-7.42-1.08-11.16H3.02c.26,3.62.59,7.23.95,10.83h-.03c1.45,14.25,3.78,28.33,6.95,42.21.04.17.08.34.12.52.59,2.55,1.2,5.09,1.84,7.62,0,.01,0,.02,0,.03.01.04.02.08.03.12.12.47.23.93.35,1.4,0,.04.02.07.03.11,0,.02,0,.03.01.05,0,0,0,0,0,0,.22.86.46,1.72.69,2.58.3,1.13.6,2.26.91,3.39.04.15.08.29.12.43.53,1.89,1.07,3.78,1.63,5.67.08.28.17.56.26.84.03.09.05.17.08.26,0,0,0,0,0,0,.33,1.09.67,2.19,1.01,3.28,0,0,0,0,0,0,.18.57.35,1.14.53,1.71.13.42.28.84.41,1.27.12.36.24.72.36,1.08.25.78.51,1.56.77,2.33,0,0,0,0,0,0,.15.46.3.92.45,1.38.21.63.44,1.25.65,1.87.48,1.39.96,2.78,1.45,4.16.32.9.66,1.79.99,2.68,0,0,0,0,0,0,0,0,0,.01,0,.02,0,0,0,0,0,.01.41,1.1.81,2.21,1.22,3.31.44,1.15.89,2.29,1.34,3.43,0,.02.02.05.03.07.08.19.15.39.23.58,0,0,0,0,0,0,.25.64.49,1.28.75,1.91.81,2.01,1.63,4.01,2.47,6,1.1,2.61,2.23,5.2,3.4,7.77,1.03,2.29,2.1,4.56,3.18,6.82.29.6.57,1.2.86,1.79.96,1.99,1.94,3.97,2.95,5.94.15.29.29.58.43.86,1.13,2.21,2.29,4.41,3.47,6.59.3.56.61,1.11.91,1.67,1,1.83,2.01,3.65,3.04,5.46.24.42.48.85.72,1.27,1.23,2.14,2.49,4.27,3.76,6.38.3.5.61.99.91,1.49,1.06,1.74,2.14,3.48,3.24,5.2.31.49.62.98.93,1.47,1.33,2.08,2.69,4.14,4.06,6.19.08.11.15.23.23.34.2.29.4.57.6.86,1.17,1.72,2.35,3.43,3.55,5.13.37.52.73,1.04,1.1,1.56,1.44,2.02,2.89,4.02,4.37,6.01.19.26.39.52.59.78,1.32,1.76,2.66,3.51,4.02,5.24.41.53.82,1.05,1.24,1.58,1.54,1.95,3.09,3.89,4.68,5.81,7.17,8.7,14.79,17.08,22.84,25.13h0s0,0,0,0c8.05,8.05,16.43,15.67,25.13,22.84,1.92,1.58,3.86,3.14,5.81,4.68.52.41,1.05.82,1.58,1.24,1.74,1.35,3.48,2.69,5.24,4.02.26.19.52.39.78.59,1.99,1.48,3.99,2.94,6.01,4.37.52.37,1.04.73,1.56,1.1,1.7,1.2,3.41,2.38,5.13,3.55.29.2.57.4.86.6.11.08.23.15.34.23,2.05,1.38,4.11,2.73,6.19,4.06.49.31.98.62,1.47.93,1.72,1.09,3.46,2.17,5.2,3.24.5.3.99.61,1.49.91,2.11,1.28,4.24,2.53,6.38,3.76.42.24.85.48,1.27.72,1.81,1.03,3.63,2.04,5.45,3.04.56.3,1.11.61,1.67.91,2.18,1.18,4.38,2.34,6.59,3.47.29.15.58.29.86.43,1.97,1,3.95,1.98,5.94,2.95.6.29,1.19.58,1.79.86,2.26,1.08,4.53,2.15,6.82,3.18,2.57,1.16,5.16,2.29,7.77,3.4.92.39,1.84.76,2.76,1.14,1.07.44,2.14.89,3.21,1.32.13.05.27.1.4.16.02,0,.05.02.07.03.68.27,1.36.53,2.04.8.03.01.06.02.09.04.25.1.51.2.76.3.88.34,1.76.7,2.64,1.03.28.11.55.2.83.31.05.02.09.04.14.05.79.3,1.58.59,2.38.88.02,0,.04.01.06.02.17.06.34.13.52.19.7.26,1.41.53,2.11.78.43.15.86.3,1.28.45.08.03.15.06.23.08.81.29,1.63.57,2.44.85.02,0,.03.01.05.02.12.04.24.09.36.13.56.19,1.12.39,1.68.59.59.2,1.19.39,1.78.58.12.04.23.08.35.12.79.26,1.59.52,2.38.78.01,0,.02,0,.03.01.09.03.18.06.28.09.42.13.83.28,1.24.41.78.25,1.56.48,2.33.72.18.06.35.11.53.17.72.22,1.45.45,2.18.67,0,0,.02,0,.02,0,.06.02.12.04.18.06.28.08.56.17.84.26,1.01.3,2.03.59,3.05.88.26.07.51.15.77.23.58.17,1.17.34,1.75.5,0,0,0,0,0,0,.01,0,.03,0,.04.01.17.05.33.1.5.14,1.53.43,3.07.83,4.6,1.24.25.06.49.14.74.2.25.07.51.14.76.2,0,0,0,0,0,0,0,0,.02,0,.03,0,.08.02.17.04.25.06,1.85.48,3.7.93,5.55,1.38.75.18,1.51.35,2.27.53,1.17.27,2.34.54,3.51.8.94.21,1.88.41,2.82.61.97.21,1.94.41,2.92.61,1.05.21,2.1.43,3.15.63.2.04.4.08.6.12.03,0,.06.01.09.02.34.07.69.12,1.04.19,1.83.35,3.66.68,5.5,1,.12.02.25.05.37.07.17.03.34.06.51.09.15.03.31.05.46.07,1.96.33,3.93.65,5.9.95.08.01.16.03.24.04.18.03.37.05.55.08.06,0,.12.02.19.03,2.14.32,4.29.62,6.44.9.04,0,.08.01.11.02.1.01.21.03.31.04.04,0,.07,0,.11.01,1.31.17,2.62.33,3.94.48,1.69.2,3.39.39,5.08.57v-.03c4.17.42,8.35.79,12.55,1.06v-25.8c-4.38-.31-8.74-.73-13.07-1.22-.19-.02-.38-.05-.57-.07Z" style="fill: red;"/>
  <path d="M675.89,381.13c-.29,3.81-.67,7.59-1.1,11.35-.13,1.13-.27,2.25-.41,3.38-.17,1.39-.34,2.78-.53,4.17-.13.98-.28,1.95-.42,2.93-.2,1.37-.4,2.74-.62,4.1-.16.98-.32,1.96-.49,2.94-.21,1.26-.43,2.52-.65,3.78-.08.46-.17.93-.26,1.39-.11.61-.23,1.21-.34,1.82-.22,1.15-.45,2.3-.68,3.45-.1.5-.2,1-.31,1.5-.14.66-.28,1.32-.42,1.98-.23,1.07-.46,2.14-.7,3.21-.1.44-.2.88-.3,1.32-.18.78-.36,1.56-.55,2.34-.26,1.08-.52,2.15-.78,3.22-.07.29-.14.58-.21.87-.23.91-.46,1.82-.7,2.73-.33,1.27-.66,2.53-1.01,3.79-.27.99-.55,1.98-.83,2.97-.35,1.25-.71,2.49-1.08,3.73-.27.91-.55,1.82-.82,2.72-.05.17-.11.35-.16.52-.35,1.13-.7,2.26-1.06,3.39-.26.83-.54,1.65-.81,2.47-.08.23-.15.46-.23.7-.38,1.14-.76,2.27-1.15,3.4-.34,1-.69,2-1.05,2.99-.4,1.13-.81,2.25-1.22,3.37-.1.27-.2.54-.3.8-.29.78-.58,1.56-.87,2.33-.39,1.02-.78,2.04-1.18,3.06-.12.31-.24.62-.36.93-.32.82-.65,1.65-.98,2.47-.39.97-.79,1.93-1.19,2.89-.1.23-.19.47-.29.7-.39.93-.78,1.86-1.18,2.79-.47,1.1-.95,2.19-1.43,3.28-.42.94-.84,1.88-1.26,2.82-.18.39-.36.78-.54,1.18-.34.74-.68,1.48-1.03,2.22-.38.82-.77,1.63-1.16,2.45-.25.53-.51,1.05-.76,1.57-.35.71-.69,1.42-1.04,2.13-.35.7-.69,1.39-1.04,2.09-.29.57-.58,1.14-.87,1.71-.39.76-.78,1.51-1.17,2.27-.32.61-.64,1.21-.96,1.82-.3.57-.6,1.14-.9,1.71-.44.82-.89,1.64-1.33,2.45-.37.68-.75,1.35-1.12,2.02-.23.41-.45.82-.68,1.23-.5.88-1,1.76-1.51,2.64,0,0,0,0,0,0-.62,1.07-1.23,2.14-1.86,3.2-.45.76-.91,1.52-1.37,2.28-.12.19-.23.38-.35.58-.6.99-1.2,1.98-1.81,2.97-.53.86-1.07,1.71-1.61,2.56-.6.95-1.21,1.9-1.82,2.85-.49.76-.99,1.52-1.49,2.28-.09.14-.18.27-.27.41-.59.89-1.18,1.78-1.78,2.67-.5.74-1,1.47-1.5,2.2-.15.21-.29.42-.44.64-.57.83-1.15,1.65-1.72,2.47-.5.72-1.01,1.43-1.52,2.15-.18.25-.37.51-.55.77-.57.79-1.15,1.58-1.72,2.36-.5.69-1.01,1.37-1.52,2.06-.21.27-.41.55-.62.82-.61.82-1.24,1.63-1.85,2.44-.47.61-.94,1.23-1.41,1.84-.21.27-.43.54-.64.81-.83,1.07-1.68,2.12-2.52,3.18-.28.35-.55.7-.83,1.04-.18.22-.36.44-.54.66-1.19,1.46-2.38,2.91-3.6,4.35-.23.27-.47.54-.7.81-1.43,1.68-2.86,3.35-4.32,5-.2.22-.4.44-.59.66-1.43,1.61-2.87,3.2-4.33,4.78-.28.3-.56.6-.84.9-1.4,1.5-2.81,2.99-4.24,4.47-.31.32-.62.64-.93.95-1.43,1.46-2.86,2.91-4.32,4.34-.3.3-.6.59-.9.89-1.5,1.47-3.02,2.93-4.54,4.37-.25.23-.5.47-.75.71-1.64,1.54-3.3,3.06-4.98,4.57-.06.05-.11.1-.17.16-.14.12-.28.25-.41.37-1.68,1.5-3.37,2.99-5.08,4.46-.21.18-.42.35-.62.53-1.68,1.44-3.38,2.86-5.09,4.26-.23.19-.46.38-.69.56-1.71,1.39-3.43,2.77-5.17,4.12-.23.18-.46.36-.69.54-1.76,1.37-3.54,2.72-5.33,4.05-.2.15-.41.3-.61.46-1.85,1.37-3.72,2.73-5.6,4.06-.14.1-.28.2-.42.3-2,1.41-4.02,2.81-6.05,4.18-.02.01-.04.02-.05.04-2.07,1.39-4.15,2.76-6.26,4.11-.05.03-.09.06-.14.09-2.07,1.32-4.16,2.63-6.26,3.9-.06.03-.11.07-.17.1-10.72,6.51-21.84,12.41-33.32,17.66-.21.1-.42.19-.63.28-2.05.93-4.11,1.85-6.19,2.74-.34.15-.69.29-1.04.44-1.95.83-3.91,1.64-5.88,2.44-.43.17-.85.34-1.28.51-2.09.83-4.19,1.65-6.3,2.44-.03.01-.06.02-.08.03-4.76,1.78-9.58,3.45-14.44,5.01-.04.01-.09.03-.13.04-7.32,2.34-14.74,4.43-22.27,6.25-.01,0-.02,0-.03,0-4.99,1.21-10.02,2.3-15.09,3.27-.1.02-.21.04-.31.06-5.05.96-10.14,1.81-15.27,2.53-.07.01-.15.02-.22.03-2.56.36-5.13.69-7.71.99h0c-.15.02-.29.04-.44.05-1.14.13-2.29.25-3.43.37-.97.1-1.94.21-2.92.3-.03,0-.06,0-.1,0-2.45.23-4.92.44-7.39.62v25.8c.57-.04,1.14-.09,1.72-.13v.02c4.1-.29,8.19-.66,12.27-1.1.06,0,.12-.01.18-.02.04,0,.07,0,.11-.01h0c.11,0,.21-.02.32-.03,0,0,0,0,0,0,.03,0,.07,0,.1-.01.23-.03.47-.06.7-.08,1.35-.15,2.71-.31,4.06-.47.6-.07,1.19-.14,1.79-.22.01,0,.03,0,.04,0,.04,0,.07,0,.11-.01.18-.02.36-.04.53-.07.6-.08,1.19-.17,1.79-.25.75-.1,1.49-.2,2.24-.3.64-.09,1.27-.18,1.91-.27.07,0,.13-.02.2-.03.17-.02.33-.04.5-.07.19-.03.39-.05.59-.08.58-.09,1.16-.19,1.73-.28.54-.08,1.08-.16,1.61-.25.65-.1,1.29-.21,1.94-.32.14-.02.27-.05.41-.07.28-.05.56-.09.83-.13.22-.04.44-.07.67-.11.48-.08.97-.18,1.45-.26.42-.07.84-.14,1.26-.22.62-.11,1.23-.23,1.85-.34.24-.04.48-.09.71-.14.37-.07.75-.13,1.12-.2.25-.05.51-.09.77-.14.36-.07.73-.15,1.09-.22.34-.07.68-.13,1.02-.19.5-.1.99-.21,1.49-.31.22-.04.44-.1.65-.14.66-.14,1.32-.26,1.98-.4.3-.06.6-.12.9-.19,1.25-.27,2.5-.56,3.74-.84.35-.08.71-.16,1.06-.24.41-.09.82-.18,1.23-.28.35-.08.71-.16,1.06-.24,1.66-.39,3.32-.81,4.98-1.23.08-.02.17-.04.25-.06.56-.14,1.12-.28,1.68-.42h0s.09-.02.14-.03c.44-.11.88-.24,1.32-.36.79-.21,1.58-.42,2.38-.64.7-.19,1.4-.38,2.1-.57.41-.11.81-.22,1.22-.33.63-.18,1.26-.37,1.89-.55.34-.1.69-.2,1.03-.3,1.03-.3,2.06-.6,3.09-.91,0,0,0,0,0,0,.32-.09.64-.19.96-.28.57-.17,1.13-.36,1.7-.54.21-.06.41-.13.62-.19,1.1-.34,2.19-.69,3.29-1.04h0c.44-.14.88-.27,1.32-.42.46-.15.92-.32,1.39-.47.13-.04.27-.09.4-.13,1.15-.38,2.29-.77,3.43-1.17.55-.19,1.1-.37,1.66-.56.35-.12.69-.25,1.04-.38.09-.03.17-.06.26-.09,1.24-.44,2.47-.89,3.71-1.35h0s.03-.01.05-.02c.59-.22,1.18-.42,1.76-.64.23-.09.46-.18.69-.27.05-.02.1-.04.16-.06,1.4-.53,2.79-1.07,4.18-1.62.02,0,.04-.02.06-.02.17-.07.34-.13.51-.2.39-.16.79-.3,1.18-.46.11-.05.23-.09.34-.14.03-.01.05-.02.08-.03,2.11-.85,4.22-1.71,6.33-2.6,2.61-1.1,5.2-2.23,7.77-3.4,2.29-1.03,4.56-2.1,6.82-3.18.6-.29,1.2-.57,1.79-.86,1.99-.96,3.97-1.94,5.94-2.95.29-.15.58-.29.86-.43,2.21-1.13,4.41-2.29,6.59-3.47.56-.3,1.11-.61,1.67-.91,1.83-1,3.65-2.01,5.46-3.04.42-.24.84-.47,1.26-.71,2.14-1.23,4.27-2.49,6.38-3.76.5-.3.99-.6,1.48-.9,1.75-1.07,3.48-2.15,5.21-3.24.49-.31.98-.61,1.46-.93,2.08-1.33,4.14-2.69,6.19-4.07.11-.08.23-.15.34-.22.29-.19.57-.4.85-.59,1.72-1.17,3.44-2.36,5.14-3.56.52-.36,1.03-.73,1.55-1.09,2.02-1.44,4.02-2.9,6.01-4.38.26-.19.51-.39.76-.58,1.76-1.32,3.51-2.67,5.26-4.03.52-.41,1.05-.82,1.57-1.23,1.95-1.54,3.89-3.1,5.81-4.68,8.7-7.17,17.08-14.79,25.13-22.84,8.04-8.04,15.65-16.41,22.81-25.1,1.59-1.93,3.16-3.89,4.71-5.85.41-.52.82-1.04,1.22-1.56,1.36-1.74,2.7-3.49,4.03-5.26.19-.26.39-.51.58-.77,1.48-1.99,2.94-3.99,4.38-6.01.37-.52.73-1.04,1.1-1.56,1.2-1.7,2.38-3.41,3.55-5.13.2-.29.4-.57.6-.86.08-.11.15-.23.23-.34,1.38-2.05,2.73-4.11,4.06-6.18.32-.49.62-.99.94-1.48,1.09-1.72,2.17-3.45,3.23-5.19.31-.5.61-1,.92-1.5,1.27-2.11,2.53-4.23,3.75-6.37.25-.43.49-.86.73-1.29,1.02-1.8,2.03-3.61,3.02-5.43.31-.56.62-1.13.92-1.69,1.17-2.18,2.33-4.37,3.46-6.57.15-.3.3-.6.45-.9.99-1.95,1.96-3.92,2.92-5.89.3-.61.59-1.22.88-1.83,1.06-2.23,2.11-4.47,3.13-6.72,1.17-2.6,2.32-5.22,3.43-7.85.39-.92.76-1.84,1.14-2.76.44-1.07.89-2.14,1.32-3.21.45-1.12.88-2.24,1.32-3.37.34-.88.7-1.76,1.03-2.64.09-.23.17-.47.26-.7,0,0,0,0,0,0,.17-.45.33-.9.5-1.36.23-.62.46-1.24.69-1.86.26-.7.53-1.41.78-2.11.12-.35.24-.7.37-1.05h0c.34-.97.68-1.94,1.02-2.91,0,0,0,0,0,0,.05-.14.09-.27.14-.41.19-.56.39-1.12.59-1.68.54-1.6,1.07-3.21,1.58-4.82.13-.42.28-.83.41-1.24.18-.57.35-1.14.53-1.71h0c.34-1.09.68-2.18,1.01-3.28,0,0,0,0,0,0,.03-.09.05-.17.08-.26.08-.28.17-.56.26-.84.2-.66.38-1.33.57-1.99,0,0,0,0,0,0,.15-.5.29-1,.43-1.5.2-.71.41-1.41.61-2.12.05-.17.1-.33.14-.5.2-.71.38-1.42.57-2.13,0,0,0,0,0,0,.15-.54.29-1.08.43-1.62.19-.73.4-1.45.58-2.18,0,0,0,0,0,0,0,0,0-.01,0-.02,0,0,0,0,0,0,.01-.06.03-.11.05-.17.12-.47.23-.95.35-1.42.01-.04.02-.09.03-.13,0-.01,0-.02,0-.03.64-2.53,1.25-5.06,1.83-7.6.04-.17.08-.35.12-.52,3.17-13.88,5.5-27.95,6.94-42.2h-.03c.37-3.6.7-7.21.95-10.83h-25.81Z" style="fill: red;"/>
  <path d="M316.37,7.57c-1.7.17-3.4.36-5.09.57-1.31.15-2.62.32-3.93.48-.04,0-.08,0-.12.01-.1.01-.2.03-.3.04-.04,0-.08.01-.12.02-2.15.28-4.29.58-6.43.89-.06,0-.13.02-.19.03-.18.03-.37.05-.55.08-.08.01-.16.03-.25.04-1.96.3-3.92.61-5.88.94-.16.03-.31.05-.47.08-.17.03-.34.06-.52.09-.13.02-.25.05-.38.07-1.83.32-3.65.65-5.48,1-.34.07-.69.12-1.04.19-.03,0-.07.01-.1.02-.2.04-.4.08-.6.12-1.04.2-2.09.42-3.13.63-.98.2-1.96.4-2.94.61-.93.2-1.86.4-2.79.61-1.19.26-2.38.54-3.56.81-.74.17-1.48.34-2.22.52-1.9.46-3.81.93-5.7,1.42-.04.01-.08.02-.12.03,0,0,0,0-.01,0,0,0,0,0,0,0-.26.07-.51.14-.77.2-.28.07-.57.15-.85.23-1.5.4-3,.79-4.49,1.21-.15.04-.29.08-.43.12-.03,0-.06.02-.08.02,0,0,0,0,0,0-.59.16-1.18.34-1.77.51-.26.07-.51.15-.77.23-1.01.29-2.03.57-3.04.88-.28.08-.56.17-.84.26-.06.02-.12.04-.18.06,0,0-.02,0-.02,0-.73.22-1.46.45-2.19.67-.18.05-.35.11-.53.17-.78.24-1.56.47-2.33.72-.42.13-.84.28-1.27.41-.09.03-.17.06-.26.09,0,0-.02,0-.03,0-.8.26-1.59.52-2.38.78-.12.04-.23.08-.35.12-.59.2-1.19.38-1.78.58-.63.21-1.25.44-1.87.65-.06.02-.13.04-.19.07,0,0-.02,0-.03,0-.82.28-1.64.57-2.46.85-.07.02-.14.05-.21.07-.43.15-.86.3-1.29.45-.91.33-1.81.67-2.71,1-.01,0-.03,0-.04.01-.78.29-1.56.57-2.33.86-.03.01-.07.03-.1.04-.28.1-.56.2-.83.31-1.18.45-2.35.91-3.52,1.37h0c-.68.27-1.36.53-2.04.8-.01,0-.02,0-.03.01-.14.05-.27.1-.41.16-2.01.81-4.01,1.63-6,2.47-2.63,1.11-5.25,2.26-7.85,3.43-2.26,1.02-4.49,2.07-6.72,3.13-.61.29-1.22.59-1.83.88-1.97.96-3.94,1.93-5.89,2.92-.3.15-.6.3-.9.45-2.21,1.13-4.39,2.28-6.57,3.46-.57.31-1.13.62-1.7.92-1.82.99-3.62,2-5.42,3.02-.43.24-.86.48-1.29.73-2.14,1.23-4.26,2.48-6.37,3.75-.5.3-1,.61-1.5.92-1.74,1.06-3.47,2.14-5.19,3.23-.49.31-.99.62-1.48.94-2.08,1.33-4.14,2.68-6.18,4.06-.11.08-.23.15-.34.23-.29.2-.57.4-.86.6-1.72,1.17-3.43,2.35-5.13,3.55-.52.37-1.04.73-1.56,1.1-2.02,1.44-4.02,2.89-6.01,4.38-.26.19-.51.39-.77.58-1.77,1.32-3.52,2.67-5.26,4.03-.52.41-1.04.81-1.56,1.22-1.96,1.55-3.92,3.11-5.85,4.71-8.69,7.17-17.06,14.77-25.1,22.81-8.05,8.05-15.67,16.43-22.84,25.13-1.58,1.92-3.14,3.86-4.68,5.81-.41.52-.82,1.05-1.23,1.57-1.36,1.74-2.7,3.49-4.03,5.26-.19.26-.39.51-.58.76-1.48,1.99-2.94,4-4.38,6.01-.37.51-.73,1.03-1.09,1.55-1.2,1.7-2.39,3.42-3.56,5.14-.19.29-.4.57-.59.85-.08.11-.15.23-.22.34-1.38,2.05-2.73,4.11-4.07,6.19-.31.48-.62.97-.93,1.46-1.1,1.73-2.18,3.46-3.24,5.21-.3.49-.61.99-.9,1.48-1.28,2.11-2.53,4.24-3.76,6.38-.24.42-.48.84-.72,1.26-1.03,1.81-2.04,3.63-3.04,5.46-.3.56-.61,1.11-.91,1.67-1.18,2.18-2.34,4.38-3.47,6.59-.15.29-.29.58-.43.86-1,1.97-1.98,3.95-2.95,5.94-.29.6-.58,1.19-.86,1.79-1.08,2.26-2.15,4.53-3.18,6.82-1.16,2.57-2.29,5.16-3.4,7.77-.44,1.03-.85,2.06-1.27,3.1-.5,1.2-1,2.41-1.49,3.62-.22.55-.43,1.11-.65,1.67-.01.03-.03.06-.04.1-.07.17-.13.35-.2.52,0,.02-.02.04-.02.06-.58,1.48-1.16,2.96-1.72,4.44-.22.58-.43,1.17-.64,1.76,0,.02-.01.04-.02.06-.52,1.4-1.03,2.8-1.52,4.2,0,0,0,0,0,0-.1.27-.2.54-.3.82-.18.52-.36,1.04-.53,1.57,0,.02-.01.04-.02.06-.04.12-.08.23-.12.35h0c-.56,1.64-1.13,3.27-1.66,4.91-.14.42-.27.85-.4,1.27,0,.02-.02.05-.02.07-.04.13-.08.27-.13.4,0,0,0,.01,0,.02-.27.82-.52,1.65-.78,2.47-.16.51-.33,1.02-.48,1.53,0,0,0,0,0,0-.12.39-.25.78-.37,1.17-.09.31-.18.61-.27.92,0,.03-.02.06-.03.09-.05.17-.1.34-.15.52,0,0,0,0,0,0-.18.6-.35,1.21-.53,1.81-.25.84-.5,1.69-.74,2.53,0,0,0,0,0,0-.11.37-.22.73-.32,1.1-.05.18-.1.36-.15.54-.01.04-.02.07-.03.11-.06.22-.12.44-.18.66h0c-.21.74-.4,1.49-.6,2.22-.27,1-.55,1.99-.81,2.99,0,0,0,0,0,0-.04.16-.09.32-.13.49-.01.04-.02.09-.03.13-.01.05-.03.09-.04.14-.53,2.05-1.04,4.11-1.53,6.17-.05.2-.1.41-.15.61-.08.32-.14.64-.22.96-.04.15-.07.3-.1.45-.35,1.51-.69,3.02-1.02,4.54-.08.38-.18.76-.26,1.14-.06.27-.11.54-.17.81,0,.03-.01.06-.02.08-.45,2.1-.88,4.21-1.29,6.32,0,.03-.01.06-.02.09-.06.3-.11.6-.16.9-.38,2.02-.76,4.05-1.11,6.08-.02.1-.03.19-.05.29,0,.05-.02.1-.02.14,0,.05-.02.1-.02.15,0,0,0,0,0,0-.28,1.65-.54,3.3-.79,4.96-.08.5-.16.99-.24,1.49,0,0,0,0,0,0,0,.05-.02.1-.02.15-.02.1-.03.2-.04.31,0,.03,0,.06-.01.09,0,.04-.01.09-.02.13h0c-.33,2.23-.64,4.45-.93,6.69,0,.03,0,.06-.01.09,0,.05-.01.1-.02.14-.39,3.04-.75,6.08-1.06,9.13h.03c-.17,1.71-.35,3.41-.5,5.13-.02.18-.03.37-.04.55-.15,1.72-.3,3.43-.42,5.16h.02c-.04.57-.09,1.14-.13,1.72h25.8c.16-2.21.35-4.41.55-6.6.2-2.16.43-4.32.67-6.47.19-1.69.4-3.37.61-5.04.04-.31.08-.63.12-.94.05-.36.09-.73.14-1.09.22-1.66.47-3.31.71-4.95.1-.69.2-1.38.31-2.07.26-1.63.53-3.25.81-4.87.12-.7.24-1.41.37-2.11.29-1.6.59-3.2.9-4.8.14-.71.28-1.42.42-2.13.32-1.58.66-3.16,1-4.74.16-.71.31-1.42.47-2.13.35-1.57.72-3.13,1.09-4.68.17-.71.34-1.42.52-2.13.38-1.55.78-3.09,1.19-4.63.19-.71.38-1.42.57-2.12.42-1.53.84-3.06,1.28-4.58.14-.5.29-1,.44-1.5.06-.2.12-.41.18-.61.45-1.52.9-3.03,1.37-4.54.09-.29.19-.59.28-.88.13-.4.25-.8.38-1.21.48-1.51.97-3.02,1.47-4.52.23-.68.46-1.37.7-2.05.51-1.5,1.03-3,1.57-4.49.22-.62.45-1.25.68-1.87.02-.05.03-.1.05-.14.55-1.49,1.1-2.98,1.67-4.46.25-.66.51-1.31.76-1.96.58-1.49,1.17-2.97,1.77-4.45.1-.26.21-.51.32-.76.16-.38.32-.76.47-1.14.62-1.48,1.24-2.97,1.88-4.44.15-.34.3-.67.44-1.01.12-.27.24-.55.36-.82.66-1.49,1.32-2.98,1.99-4.45.26-.58.54-1.15.81-1.73.7-1.5,1.4-3,2.12-4.48.04-.08.08-.17.12-.25.22-.46.45-.91.67-1.37.74-1.51,1.49-3.02,2.26-4.52.25-.49.51-.98.76-1.47.8-1.54,1.6-3.08,2.42-4.6.23-.42.46-.83.69-1.25.86-1.59,1.73-3.17,2.62-4.74,0,0,0,0,0,0,.18-.32.36-.63.54-.94.94-1.65,1.89-3.29,2.86-4.92.03-.05.05-.09.08-.14.08-.13.15-.25.23-.38,2.77-4.65,5.67-9.23,8.66-13.73.25-.38.51-.76.76-1.14.85-1.27,1.71-2.53,2.58-3.78.28-.41.57-.82.85-1.22.9-1.28,1.8-2.56,2.71-3.82.19-.26.38-.51.56-.77,3.22-4.44,6.54-8.79,9.97-13.05.14-.18.28-.35.42-.53.27-.34.55-.67.83-1.01.89-1.08,1.78-2.16,2.68-3.24.21-.25.42-.51.64-.77.39-.46.79-.92,1.18-1.38.79-.92,1.58-1.84,2.37-2.76.23-.27.47-.54.7-.81.42-.48.85-.97,1.28-1.45.79-.88,1.58-1.77,2.38-2.65.24-.26.48-.53.72-.79.43-.47.86-.94,1.29-1.41.83-.89,1.66-1.79,2.5-2.67.25-.27.51-.54.76-.8.39-.41.78-.82,1.17-1.23.9-.93,1.8-1.86,2.71-2.78.42-.43.84-.85,1.26-1.28.18-.18.36-.36.54-.54.98-.98,1.97-1.95,2.96-2.91.62-.6,1.23-1.21,1.85-1.8,1-.96,2-1.9,3.01-2.85.65-.61,1.3-1.22,1.95-1.82,1-.92,2.01-1.83,3.02-2.74.68-.61,1.36-1.22,2.04-1.82,1-.89,2.02-1.76,3.03-2.64.68-.58,1.35-1.16,2.03-1.74.1-.09.21-.17.31-.26.94-.79,1.88-1.58,2.83-2.36.65-.53,1.3-1.07,1.95-1.6.17-.14.34-.28.52-.42.93-.75,1.87-1.5,2.8-2.25.67-.53,1.34-1.05,2.01-1.58.13-.1.25-.2.38-.29.99-.77,1.98-1.53,2.98-2.29.78-.59,1.55-1.17,2.33-1.75,1.04-.77,2.08-1.54,3.12-2.29.8-.58,1.59-1.15,2.4-1.72,1.05-.74,2.09-1.48,3.15-2.22.65-.45,1.3-.9,1.96-1.35.17-.11.33-.23.5-.34,1.06-.72,2.12-1.43,3.18-2.14.83-.55,1.67-1.1,2.51-1.65,1.07-.69,2.14-1.39,3.21-2.07.85-.54,1.7-1.07,2.56-1.6,1.08-.67,2.16-1.34,3.25-2,.51-.31,1.02-.61,1.53-.91.36-.21.71-.43,1.07-.64,1.09-.65,2.19-1.29,3.29-1.93.88-.51,1.76-1.01,2.65-1.51,1.1-.62,2.2-1.24,3.31-1.85.89-.49,1.79-.97,2.69-1.45,1.12-.6,2.23-1.2,3.35-1.79.11-.06.21-.11.32-.16.8-.42,1.6-.83,2.41-1.24,1.13-.58,2.26-1.15,3.39-1.71.91-.45,1.83-.89,2.75-1.34,1.15-.55,2.29-1.11,3.44-1.65.76-.36,1.53-.7,2.29-1.05.16-.07.32-.15.48-.22,1.16-.53,2.32-1.07,3.49-1.59.8-.35,1.61-.7,2.41-1.04.13-.05.25-.11.38-.16,1.08-.47,2.16-.93,3.24-1.39.14-.06.28-.12.42-.18.89-.37,1.79-.73,2.68-1.09,1-.41,2-.81,3.01-1.21.3-.12.59-.24.89-.35.68-.27,1.37-.53,2.06-.79.15-.06.29-.11.44-.17.97-.37,1.94-.74,2.92-1.11.41-.15.82-.31,1.23-.46.25-.09.5-.18.74-.27.5-.18.99-.35,1.49-.53.99-.35,1.98-.71,2.97-1.06.5-.17,1-.35,1.51-.52.19-.06.38-.13.57-.19.42-.14.85-.28,1.27-.42,1.06-.36,2.13-.71,3.2-1.06.58-.19,1.15-.37,1.73-.56.23-.07.45-.14.68-.21.06-.02.11-.03.17-.05,2.59-.81,5.19-1.59,7.8-2.34.12-.03.23-.07.35-.1,2.61-.74,5.23-1.46,7.86-2.14.55-.14,1.11-.29,1.66-.43.57-.14,1.14-.28,1.71-.42.99-.24,1.98-.48,2.98-.71.24-.06.48-.11.72-.17.53-.13,1.06-.25,1.59-.38.5-.11,1-.23,1.51-.34.96-.21,1.93-.42,2.89-.63.88-.19,1.76-.38,2.65-.57.41-.09.83-.17,1.25-.25.98-.19,1.97-.38,2.95-.57.09-.02.18-.03.27-.05.88-.17,1.76-.34,2.64-.5.3-.05.6-.11.89-.16,1.04-.18,2.08-.36,3.13-.54,1.05-.18,2.09-.36,3.15-.53.1-.02.21-.03.31-.05,1.17-.18,2.35-.35,3.53-.53.23-.03.47-.07.7-.1.86-.13,1.71-.26,2.57-.37,1.25-.17,2.51-.32,3.77-.48,1.2-.15,2.4-.3,3.6-.44,4.38-.5,8.79-.92,13.23-1.24V6.53c-4.2.28-8.38.64-12.55,1.06v-.03Z" style="fill: red;"/>
  <path d="M383.29,32.96c1.87.18,3.74.38,5.6.59.39.04.79.08,1.18.13h0c1.84.22,3.68.45,5.51.7.27.04.55.07.83.11,1.59.22,3.18.45,4.76.69.62.09,1.23.18,1.85.28,1.5.24,2.99.49,4.49.74.68.12,1.37.23,2.05.36,1.47.26,2.94.54,4.41.82.67.13,1.33.26,2,.39,1.5.3,2.99.6,4.48.92.56.12,1.12.25,1.68.37,1.6.35,3.19.7,4.78,1.08.06.02.13.03.19.05,5.6,1.33,11.15,2.8,16.63,4.42.44.13.89.26,1.33.39,1.49.45,2.98.91,4.46,1.37.59.18,1.18.37,1.76.56,1.44.46,2.87.93,4.3,1.41.61.2,1.22.41,1.82.62,1.43.49,2.86.99,4.28,1.5.56.2,1.11.41,1.67.61,1.48.54,2.96,1.08,4.42,1.64.34.13.67.26,1,.39,5.22,2.01,10.37,4.15,15.45,6.42.21.1.43.19.65.28,1.44.65,2.88,1.31,4.31,1.98.52.24,1.04.48,1.56.73,1.35.64,2.69,1.29,4.02,1.94.59.29,1.17.58,1.76.87,1.31.65,2.62,1.31,3.92,1.98.58.3,1.15.6,1.73.9,1.32.69,2.63,1.38,3.94,2.09.5.27.99.54,1.48.81,1.39.76,2.77,1.52,4.15,2.3.02.01.05.03.07.04,4.8,2.72,9.51,5.56,14.15,8.51.54.34,1.07.68,1.61,1.02,1.17.75,2.33,1.52,3.49,2.29.63.42,1.27.84,1.89,1.26,1.11.75,2.22,1.5,3.32,2.26.66.46,1.32.92,1.98,1.38,1.08.76,2.16,1.52,3.23,2.29.66.47,1.31.95,1.96,1.43,1.08.79,2.15,1.57,3.22,2.37.48.36.96.73,1.44,1.09,1.11.84,2.22,1.68,3.31,2.54.52.41,1.03.82,1.55,1.23,1.05.83,2.09,1.65,3.13,2.49.56.45,1.11.91,1.67,1.37.98.81,1.97,1.61,2.94,2.43.6.5,1.19,1.02,1.79,1.52.92.78,1.84,1.57,2.75,2.36.9.78,1.79,1.57,2.68,2.37.7.62,1.4,1.24,2.09,1.87.91.82,1.81,1.66,2.72,2.49.65.61,1.3,1.21,1.95,1.82.92.87,1.84,1.74,2.75,2.62.6.58,1.2,1.16,1.8,1.75.94.92,1.88,1.84,2.81,2.78.51.51,1.02,1.03,1.53,1.55,1,1.02,2,2.03,2.99,3.06.24.25.48.51.72.76.97,1.01,1.92,2.03,2.88,3.06.26.28.53.57.79.85,1.07,1.16,2.13,2.33,3.18,3.51.38.42.76.85,1.14,1.27.98,1.11,1.95,2.22,2.92,3.34.05.06.1.11.15.17.37.43.74.86,1.1,1.29.85,1,1.69,2,2.53,3,.26.32.53.63.79.95.19.24.39.47.58.71.86,1.05,1.71,2.1,2.56,3.15.34.42.68.85,1.01,1.27.98,1.23,1.94,2.47,2.9,3.72.29.38.58.75.86,1.13,1,1.32,2,2.64,2.98,3.97.23.32.46.63.69.95,1.1,1.51,2.2,3.03,3.28,4.56.05.07.1.13.14.2.19.27.37.54.56.81,1.04,1.49,2.08,2.99,3.1,4.5.08.11.16.23.23.34.04.06.09.13.13.19.14.2.27.41.41.62,1,1.49,1.98,2.99,2.95,4.5.18.28.36.55.54.83.09.14.17.28.26.41.96,1.5,1.9,3.01,2.83,4.52.23.37.46.74.69,1.11.04.07.08.13.12.2.93,1.52,1.83,3.05,2.74,4.58.26.45.53.9.8,1.35.9,1.54,1.77,3.09,2.64,4.65.27.49.55.98.82,1.47.85,1.53,1.67,3.07,2.5,4.62.01.02.02.04.03.06.27.51.54,1.01.81,1.52.8,1.52,1.58,3.06,2.36,4.6.1.21.21.41.31.62.18.36.36.71.54,1.06.76,1.52,1.5,3.05,2.23,4.59.28.59.56,1.17.84,1.76.72,1.53,1.42,3.06,2.11,4.6.05.1.09.21.14.31.23.51.46,1.01.68,1.52.68,1.53,1.34,3.07,2,4.61.04.1.08.2.13.3.23.53.45,1.06.68,1.6.64,1.53,1.27,3.07,1.88,4.62.26.65.52,1.3.78,1.96.6,1.54,1.19,3.08,1.77,4.63.25.67.5,1.34.75,2.01.57,1.55,1.12,3.1,1.66,4.65.24.68.48,1.37.71,2.06.53,1.56,1.05,3.12,1.56,4.68.23.69.45,1.39.67,2.09.5,1.57.98,3.14,1.46,4.72.21.7.42,1.41.63,2.12.46,1.58.91,3.16,1.35,4.75.2.72.39,1.43.59,2.15.43,1.59.84,3.18,1.25,4.78.18.72.36,1.45.54,2.17.39,1.6.78,3.21,1.15,4.82.17.73.33,1.46.49,2.19.36,1.62.71,3.24,1.04,4.86.15.73.3,1.47.44,2.2.32,1.63.64,3.26.94,4.9.13.74.26,1.48.39,2.21.29,1.65.57,3.3.83,4.95.12.74.23,1.48.34,2.21.25,1.66.5,3.33.73,5,.1.73.19,1.47.29,2.21.22,1.69.43,3.37.62,5.07.25,2.17.47,4.35.68,6.53.21,2.22.4,4.45.56,6.69h25.8c-.04-.57-.09-1.14-.13-1.72h.02c-.12-1.72-.27-3.43-.42-5.14-.02-.19-.03-.38-.05-.57-.15-1.71-.32-3.42-.5-5.12h.03c-.31-3.05-.67-6.1-1.06-9.13,0-.06-.01-.11-.02-.17,0-.02,0-.05,0-.07,0-.02,0-.04,0-.06,0,0,0,0,0,0-.17-1.28-.35-2.55-.53-3.83-.13-.91-.25-1.83-.38-2.74,0,0,0,0,0,0,0-.06-.02-.11-.02-.17,0-.04-.01-.08-.02-.12-.01-.1-.03-.19-.04-.29,0-.05-.02-.09-.02-.14,0,0,0,0,0,0-.33-2.2-.68-4.4-1.06-6.6-.01-.07-.02-.15-.04-.22-.01-.08-.02-.15-.04-.23,0-.02,0-.04-.01-.06,0,0,0,0,0,0-.24-1.38-.5-2.76-.75-4.14-.13-.73-.26-1.46-.4-2.18,0,0,0,0,0,0-.04-.19-.07-.38-.1-.56,0-.03-.01-.07-.02-.1-.41-2.11-.84-4.21-1.29-6.31,0,0,0,0,0,0-.06-.3-.12-.6-.19-.9-.08-.38-.17-.76-.26-1.14-.33-1.51-.67-3.02-1.02-4.53-.03-.12-.05-.25-.08-.37-.08-.35-.16-.71-.24-1.06-.05-.2-.1-.4-.15-.6-.49-2.06-1-4.12-1.53-6.17-.01-.05-.03-.1-.04-.15-.01-.04-.02-.09-.03-.13-.04-.16-.09-.32-.13-.48,0,0,0,0,0,0-.51-1.96-1.04-3.92-1.59-5.87-.01-.04-.02-.08-.03-.12-.05-.18-.1-.36-.15-.54-.51-1.8-1.04-3.6-1.58-5.4,0,0,0,0,0,0-.05-.18-.11-.37-.16-.55,0-.03-.02-.06-.03-.09-.09-.31-.18-.62-.27-.92-.53-1.73-1.08-3.46-1.64-5.18,0,0,0,0,0-.01-.04-.13-.08-.26-.12-.39,0-.02-.01-.04-.02-.06-.13-.43-.27-.85-.41-1.28-.25-.76-.51-1.51-.77-2.26-.34-1-.67-1.99-1.01-2.99,0-.01,0-.03-.01-.04-.18-.53-.35-1.05-.54-1.58-.1-.28-.2-.56-.3-.83,0,0,0,0,0,0-.1-.27-.2-.55-.3-.82-.41-1.14-.82-2.28-1.24-3.41-.22-.59-.42-1.18-.64-1.76-.7-1.87-1.43-3.73-2.16-5.59-.16-.39-.3-.79-.46-1.18-.9-2.26-1.82-4.51-2.77-6.75-1.11-2.63-2.26-5.25-3.43-7.85-1.02-2.26-2.07-4.49-3.13-6.72-.29-.61-.59-1.22-.88-1.83-.96-1.97-1.93-3.94-2.92-5.89-.15-.3-.3-.6-.45-.9-1.13-2.21-2.28-4.39-3.46-6.57-.31-.57-.62-1.13-.92-1.7-.99-1.82-2-3.63-3.02-5.43-.24-.43-.48-.86-.73-1.29-1.23-2.14-2.48-4.26-3.76-6.37-.3-.5-.61-1-.91-1.49-1.06-1.74-2.14-3.47-3.24-5.2-.31-.49-.62-.98-.93-1.47-1.33-2.08-2.69-4.14-4.07-6.19-.08-.11-.15-.23-.22-.34-.19-.29-.4-.57-.59-.85-1.17-1.72-2.36-3.44-3.56-5.14-.36-.52-.73-1.03-1.09-1.55-1.44-2.02-2.9-4.03-4.38-6.02-.19-.25-.38-.5-.57-.75-1.33-1.77-2.68-3.53-4.04-5.27-.41-.52-.81-1.04-1.22-1.55-1.55-1.96-3.12-3.92-4.71-5.85-3.58-4.34-7.28-8.61-11.08-12.79-3.8-4.18-7.71-8.29-11.73-12.31-4.02-4.02-8.12-7.93-12.31-11.73-4.18-3.8-8.45-7.5-12.79-11.08-1.93-1.59-3.89-3.16-5.85-4.71-.52-.41-1.04-.81-1.55-1.22-1.75-1.36-3.5-2.71-5.27-4.04-.25-.19-.5-.38-.75-.57-1.99-1.48-4-2.94-6.02-4.38-.51-.37-1.03-.73-1.55-1.09-1.7-1.2-3.42-2.39-5.14-3.56-.29-.19-.57-.4-.85-.59-.11-.08-.23-.15-.34-.22-2.05-1.38-4.11-2.73-6.19-4.07-.49-.31-.98-.62-1.47-.93-1.72-1.09-3.45-2.17-5.2-3.24-.5-.3-.99-.61-1.49-.91-2.11-1.27-4.23-2.53-6.37-3.76-.43-.25-.86-.48-1.28-.73-1.8-1.02-3.61-2.03-5.43-3.03-.56-.31-1.13-.62-1.69-.92-2.18-1.17-4.37-2.33-6.57-3.46-.3-.15-.6-.3-.9-.45-1.95-.99-3.92-1.96-5.89-2.92-.61-.3-1.22-.59-1.83-.88-2.23-1.06-4.47-2.11-6.72-3.13-2.6-1.17-5.22-2.32-7.85-3.43-.72-.3-1.44-.59-2.16-.89-1.39-.57-2.77-1.15-4.16-1.71-.02,0-.03-.01-.05-.02-.11-.05-.23-.1-.34-.14-.78-.31-1.57-.6-2.35-.91-.02,0-.05-.02-.07-.03-1.18-.46-2.36-.93-3.55-1.37-.04-.02-.09-.03-.13-.05-.23-.09-.46-.18-.69-.27-.61-.23-1.22-.44-1.83-.67h0c-1.24-.46-2.47-.91-3.71-1.35-.08-.03-.16-.06-.24-.08-.35-.13-.7-.26-1.05-.38-.54-.19-1.08-.37-1.62-.55,0,0,0,0,0,0-1.16-.4-2.32-.8-3.48-1.18-.13-.04-.26-.08-.39-.13-.46-.16-.93-.32-1.39-.47-.59-.19-1.17-.37-1.76-.56,0,0-.02,0-.02,0-.94-.3-1.88-.6-2.83-.9-.21-.06-.42-.13-.62-.19-.57-.18-1.13-.36-1.7-.54-.32-.1-.64-.19-.96-.28,0,0,0,0,0,0-1.03-.31-2.06-.61-3.09-.91-.35-.1-.71-.2-1.06-.31-.62-.18-1.24-.37-1.87-.55-.44-.12-.88-.24-1.31-.36,0,0,0,0,0,0-.67-.18-1.33-.36-2-.55-.82-.22-1.65-.44-2.47-.66-.41-.11-.82-.23-1.23-.33-.37-.1-.74-.18-1.11-.28,0,0,0,0,0,0-.24-.06-.49-.12-.73-.18-.1-.02-.19-.05-.29-.07-1.64-.42-3.28-.83-4.92-1.22-.32-.08-.64-.14-.96-.22-.43-.1-.87-.19-1.31-.29-.37-.09-.74-.17-1.11-.25-1.24-.28-2.47-.57-3.71-.84-.27-.06-.54-.11-.81-.17-.68-.14-1.35-.27-2.03-.41-.23-.05-.45-.1-.67-.15-.5-.1-1-.21-1.49-.31-.35-.07-.69-.13-1.04-.2-.36-.07-.72-.15-1.08-.22-.23-.04-.45-.08-.68-.13-.39-.07-.77-.14-1.16-.21-.25-.05-.49-.1-.74-.14-.62-.11-1.23-.23-1.85-.34-.43-.08-.86-.15-1.29-.22-.48-.08-.96-.18-1.44-.26-.2-.03-.39-.06-.59-.1-.29-.05-.58-.09-.87-.14-.14-.02-.28-.05-.42-.07-.65-.11-1.3-.22-1.94-.32-.55-.09-1.09-.17-1.64-.25-.57-.09-1.14-.19-1.71-.28-.18-.03-.35-.05-.53-.08-.18-.03-.35-.05-.53-.07-.07-.01-.14-.02-.21-.03-.64-.09-1.28-.18-1.92-.28-.76-.11-1.51-.2-2.27-.31-.58-.08-1.17-.17-1.75-.24-.17-.02-.33-.04-.5-.06-.04,0-.09,0-.13-.02-.02,0-.03,0-.05,0-.6-.08-1.2-.15-1.8-.22-1.37-.17-2.74-.32-4.11-.48-.22-.02-.43-.05-.65-.08-.03,0-.06,0-.09,0-.11-.01-.21-.03-.32-.04h0s-.06,0-.09,0c-.05,0-.09,0-.14-.01-4.1-.43-8.2-.81-12.33-1.1v.02c-.57-.04-1.14-.09-1.72-.13v25.8c2.23.16,4.46.35,6.68.55.27.02.54.05.81.07Z" style="fill: red;"/>
  <path d="M546.25,529.54c-4.64,3.21-5.79,9.58-2.58,14.22,3.21,4.64,9.58,5.79,14.22,2.58,4.64-3.21,5.79-9.58,2.58-14.22-3.21-4.64-9.58-5.79-14.22-2.58Z" style="fill: red;"/>
  <path d="M523.92,551.79c-4.64,3.21-5.79,9.58-2.58,14.22,3.21,4.64,9.58,5.79,14.22,2.58,4.64-3.21,5.79-9.58,2.58-14.22-3.21-4.64-9.58-5.79-14.22-2.58Z" style="fill: red;"/>
  <path d="M607.86,465.86c4.64-3.21,5.79-9.58,2.58-14.22s-9.58-5.79-14.22-2.58c-4.64,3.21-5.79,9.58-2.58,14.22,3.21,4.64,9.58,5.79,14.22,2.58Z" style="fill: red;"/>
  <path d="M443.2,601.4c-4.64,3.21-5.79,9.58-2.58,14.22,3.21,4.64,9.58,5.79,14.22,2.58,4.64-3.21,5.79-9.58,2.58-14.22-3.21-4.64-9.58-5.79-14.22-2.58Z" style="fill: red;"/>
  <path d="M412.52,611.42c-4.64,3.21-5.79,9.58-2.58,14.22,3.21,4.64,9.58,5.79,14.22,2.58,4.64-3.21,5.79-9.58,2.58-14.22-3.21-4.64-9.58-5.79-14.22-2.58Z" style="fill: red;"/>
  <path d="M618.02,435.25c4.64-3.21,5.79-9.58,2.58-14.22-3.21-4.64-9.58-5.79-14.22-2.58-4.64,3.21-5.79,9.58-2.58,14.22,3.21,4.64,9.58,5.79,14.22,2.58Z" style="fill: red;"/>
  <path d="M472.14,587.95c-4.64,3.21-5.79,9.58-2.58,14.22,3.21,4.64,9.58,5.79,14.22,2.58,4.64-3.21,5.79-9.58,2.58-14.22-3.21-4.64-9.58-5.79-14.22-2.58Z" style="fill: red;"/>
  <path d="M571.3,199.29c-4.64,3.21-5.79,9.58-2.58,14.22,3.21,4.64,9.58,5.79,14.22,2.58,4.64-3.21,5.79-9.58,2.58-14.22-3.21-4.64-9.58-5.79-14.22-2.58Z" style="fill: red;"/>
  <path d="M599.6,256.08c-4.64,3.21-5.79,9.58-2.58,14.22,3.21,4.64,9.58,5.79,14.22,2.58,4.64-3.21,5.79-9.58,2.58-14.22-3.21-4.64-9.58-5.79-14.22-2.58Z" style="fill: red;"/>
  <path d="M608.68,287.07c-4.64,3.21-5.79,9.58-2.58,14.22,3.21,4.64,9.58,5.79,14.22,2.58,4.64-3.21,5.79-9.58,2.58-14.22s-9.58-5.79-14.22-2.58Z" style="fill: red;"/>
  <path d="M587.06,226.75c-4.64,3.21-5.79,9.58-2.58,14.22,3.21,4.64,9.58,5.79,14.22,2.58,4.64-3.21,5.79-9.58,2.58-14.22s-9.58-5.79-14.22-2.58Z" style="fill: red;"/>
  <path d="M614.06,319.46c-3.74,2.59-5.21,7.24-3.96,11.37.3.99.76,1.95,1.38,2.85,3.21,4.64,9.58,5.79,14.22,2.58,1.97-1.37,3.3-3.3,3.95-5.43.87-2.88.48-6.12-1.37-8.79-3.21-4.64-9.58-5.79-14.22-2.58Z" style="fill: red;"/>
  <path d="M628.52,391.96c-.3-1.06-.77-2.08-1.42-3.03-3.21-4.64-9.58-5.79-14.22-2.58-2.03,1.4-3.39,3.41-4.01,5.61-.8,2.84-.38,6,1.43,8.61,3.21,4.64,9.58,5.79,14.22,2.58,3.69-2.55,5.16-7.1,4-11.19Z" style="fill: red;"/>
  <path d="M629.72,355.57c-3.21-4.64-9.58-5.79-14.22-2.58-4.64,3.21-5.79,9.58-2.58,14.22,3.21,4.64,9.58,5.79,14.22,2.58,4.64-3.21,5.79-9.58,2.58-14.22Z" style="fill: red;"/>
  <path d="M499.13,571.33c-4.64,3.21-5.79,9.58-2.58,14.22,3.21,4.64,9.58,5.79,14.22,2.58,4.64-3.21,5.79-9.58,2.58-14.22-3.21-4.64-9.58-5.79-14.22-2.58Z" style="fill: red;"/>
  <path d="M392.02,634.59c4.64-3.21,5.79-9.58,2.58-14.22-1.17-1.69-2.77-2.91-4.54-3.64-3.09-1.26-6.73-.98-9.68,1.06-4.64,3.21-5.79,9.58-2.58,14.22,2.78,4.01,7.92,5.41,12.26,3.64.68-.28,1.34-.62,1.96-1.06Z" style="fill: red;"/>
  <path d="M167.91,556.17c-4.64,3.21-5.79,9.58-2.58,14.22,3.21,4.64,9.58,5.79,14.22,2.58,4.64-3.21,5.79-9.58,2.58-14.22-3.21-4.64-9.58-5.79-14.22-2.58Z" style="fill: red;"/>
  <path d="M136.42,527.07c4.64-3.21,5.79-9.58,2.58-14.22-3.21-4.64-9.58-5.79-14.22-2.58-4.64,3.21-5.79,9.58-2.58,14.22,3.21,4.64,9.58,5.79,14.22,2.58Z" style="fill: red;"/>
  <path d="M112.12,204.59c-4.64,3.21-5.79,9.58-2.58,14.22,3.21,4.64,9.58,5.79,14.22,2.58,4.64-3.21,5.79-9.58,2.58-14.22-3.21-4.64-9.58-5.79-14.22-2.58Z" style="fill: red;"/>
  <path d="M542.62,167.71c4.64-3.21,5.79-9.58,2.58-14.22-3.21-4.64-9.58-5.79-14.22-2.58-4.64,3.21-5.79,9.58-2.58,14.22,3.21,4.64,9.58,5.79,14.22,2.58Z" style="fill: red;"/>
  <path d="M552.56,173.99c-4.64,3.21-5.79,9.58-2.58,14.22,3.21,4.64,9.58,5.79,14.22,2.58,4.64-3.21,5.79-9.58,2.58-14.22-3.21-4.64-9.58-5.79-14.22-2.58Z" style="fill: red;"/>
  <path d="M594.29,494.73c4.64-3.21,5.79-9.58,2.58-14.22-3.21-4.64-9.58-5.79-14.22-2.58-4.64,3.21-5.79,9.58-2.58,14.22,3.21,4.64,9.58,5.79,14.22,2.58Z" style="fill: red;"/>
  <path d="M156.68,551.27c4.64-3.21,5.79-9.58,2.58-14.22-3.21-4.64-9.58-5.79-14.22-2.58s-5.79,9.58-2.58,14.22c3.21,4.64,9.58,5.79,14.22,2.58Z" style="fill: red;"/>
  <path d="M96.94,232.5c-4.64,3.21-5.79,9.58-2.58,14.22,3.21,4.64,9.58,5.79,14.22,2.58s5.79-9.58,2.58-14.22c-3.21-4.64-9.58-5.79-14.22-2.58Z" style="fill: red;"/>
  <path d="M577.56,521.64c4.64-3.21,5.79-9.58,2.58-14.22-3.21-4.64-9.58-5.79-14.22-2.58-4.64,3.21-5.79,9.58-2.58,14.22,3.21,4.64,9.58,5.79,14.22,2.58Z" style="fill: red;"/>
  <path d="M163.02,172.05c4.64-3.21,5.79-9.58,2.58-14.22-3.21-4.64-9.58-5.79-14.22-2.58s-5.79,9.58-2.58,14.22c3.21,4.64,9.58,5.79,14.22,2.58Z" style="fill: red;"/>
  <path d="M104.81,472.14c4.64-3.21,5.79-9.58,2.58-14.22-3.21-4.64-9.58-5.79-14.22-2.58s-5.79,9.58-2.58,14.22c3.21,4.64,9.58,5.79,14.22,2.58Z" style="fill: red;"/>
  <path d="M119.06,500.61c4.64-3.21,5.79-9.58,2.58-14.22-3.21-4.64-9.58-5.79-14.22-2.58-4.64,3.21-5.79,9.58-2.58,14.22,3.21,4.64,9.58,5.79,14.22,2.58Z" style="fill: red;"/>
  <path d="M93.91,441.87c4.64-3.21,5.79-9.58,2.58-14.22-3.21-4.64-9.58-5.79-14.22-2.58-4.64,3.21-5.79,9.58-2.58,14.22s9.58,5.79,14.22,2.58Z" style="fill: red;"/>
  <path d="M74.1,307.89c3.21,4.64,9.58,5.79,14.22,2.58,4.64-3.21,5.79-9.58,2.58-14.22-3.21-4.64-9.58-5.79-14.22-2.58-4.64,3.21-5.79,9.58-2.58,14.22Z" style="fill: red;"/>
  <path d="M68.51,330.83c-1.32,3.12-1.07,6.82,1,9.81,3.21,4.64,9.58,5.79,14.22,2.58,4.05-2.81,5.44-8.02,3.59-12.39-.27-.63-.6-1.25-1.01-1.83-3.21-4.64-9.58-5.79-14.22-2.58-1.65,1.14-2.85,2.69-3.58,4.41Z" style="fill: red;"/>
  <path d="M68.9,374.39c3.21,4.64,9.58,5.79,14.22,2.58,4.64-3.21,5.79-9.58,2.58-14.22-3.21-4.64-9.58-5.79-14.22-2.58-4.64,3.21-5.79,9.58-2.58,14.22Z" style="fill: red;"/>
  <path d="M86.6,410.06c4.64-3.21,5.79-9.58,2.58-14.22-1.32-1.91-3.18-3.21-5.22-3.88-2.05-.67-4.28-.69-6.38,0-.91.3-1.79.73-2.62,1.3-4.64,3.21-5.79,9.58-2.58,14.22,3.21,4.64,9.58,5.79,14.22,2.58Z" style="fill: red;"/>
  <path d="M193.17,575.12c-4.64,3.21-5.79,9.58-2.58,14.22,3.21,4.64,9.58,5.79,14.22,2.58,4.64-3.21,5.79-9.58,2.58-14.22-3.21-4.64-9.58-5.79-14.22-2.58Z" style="fill: red;"/>
  <path d="M346.98,620.26c-4.64,3.21-5.79,9.58-2.58,14.22,3.21,4.64,9.58,5.79,14.22,2.58,4.64-3.21,5.79-9.58,2.58-14.22-3.21-4.64-9.58-5.79-14.22-2.58Z" style="fill: red;"/>
  <path d="M327.6,621.21c-3.21-4.64-9.58-5.79-14.22-2.58-4.64,3.21-5.79,9.58-2.58,14.22,3.21,4.64,9.58,5.79,14.22,2.58,1.93-1.33,3.24-3.21,3.9-5.28.64-2.01.67-4.2,0-6.26-.3-.93-.74-1.83-1.32-2.68Z" style="fill: red;"/>
  <path d="M249.94,603.81c-4.64,3.21-5.79,9.58-2.58,14.22,3.21,4.64,9.58,5.79,14.22,2.58,4.64-3.21,5.79-9.58,2.58-14.22-3.21-4.64-9.58-5.79-14.22-2.58Z" style="fill: red;"/>
  <path d="M280.95,613.09c-4.64,3.21-5.79,9.58-2.58,14.22,3.21,4.64,9.58,5.79,14.22,2.58s5.79-9.58,2.58-14.22c-3.21-4.64-9.58-5.79-14.22-2.58Z" style="fill: red;"/>
  <path d="M220.6,591.07c-4.64,3.21-5.79,9.58-2.58,14.22,3.21,4.64,9.58,5.79,14.22,2.58,4.64-3.21,5.79-9.58,2.58-14.22-3.21-4.64-9.58-5.79-14.22-2.58Z" style="fill: red;"/>
  <path d="M240.52,117.95c4.64-3.21,5.79-9.58,2.58-14.22s-9.58-5.79-14.22-2.58-5.79,9.58-2.58,14.22c3.21,4.64,9.58,5.79,14.22,2.58Z" style="fill: red;"/>
  <path d="M390.06,96.82c3.38,2.24,7.93,2.34,11.47-.11,4.64-3.21,5.79-9.58,2.58-14.22-3.17-4.58-9.42-5.76-14.05-2.69-.06.04-.12.07-.17.11-4.64,3.21-5.79,9.58-2.58,14.22.76,1.1,1.7,1.99,2.75,2.69Z" style="fill: red;"/>
  <path d="M368.4,93.07c4.64-3.21,5.79-9.58,2.58-14.22-3.21-4.64-9.58-5.79-14.22-2.58-4.64,3.21-5.79,9.58-2.58,14.22,3.21,4.64,9.58,5.79,14.22,2.58Z" style="fill: red;"/>
  <path d="M322.95,76.71c-4.64,3.21-5.79,9.58-2.58,14.22,2.01,2.91,5.27,4.44,8.56,4.4,1.96-.03,3.93-.62,5.67-1.82,4.64-3.21,5.79-9.58,2.58-14.22-1.95-2.82-5.06-4.34-8.24-4.39-2.06-.03-4.15.55-5.98,1.81Z" style="fill: red;"/>
  <path d="M463.61,115.27c4.64-3.21,5.79-9.58,2.58-14.22-3.21-4.64-9.58-5.79-14.22-2.58-4.64,3.21-5.79,9.58-2.58,14.22,3.21,4.64,9.58,5.79,14.22,2.58Z" style="fill: red;"/>
  <path d="M492.06,129.72c4.64-3.21,5.79-9.58,2.58-14.22s-9.58-5.79-14.22-2.58c-4.64,3.21-5.79,9.58-2.58,14.22,3.21,4.64,9.58,5.79,14.22,2.58Z" style="fill: red;"/>
  <path d="M301.79,97.95c4.64-3.21,5.79-9.58,2.58-14.22-3.21-4.64-9.58-5.79-14.22-2.58-4.64,3.21-5.79,9.58-2.58,14.22,3.21,4.64,9.58,5.79,14.22,2.58Z" style="fill: red;"/>
  <path d="M433.34,104.18c4.64-3.21,5.79-9.58,2.58-14.22-3.21-4.64-9.58-5.79-14.22-2.58-4.64,3.21-5.79,9.58-2.58,14.22,3.21,4.64,9.58,5.79,14.22,2.58Z" style="fill: red;"/>
  <path d="M186.61,151.12c4.64-3.21,5.79-9.58,2.58-14.22s-9.58-5.79-14.22-2.58c-4.64,3.21-5.79,9.58-2.58,14.22s9.58,5.79,14.22,2.58Z" style="fill: red;"/>
  <path d="M141.99,195.55c4.64-3.21,5.79-9.58,2.58-14.22-3.21-4.64-9.58-5.79-14.22-2.58h0c-4.64,3.21-5.79,9.58-2.58,14.22,3.21,4.64,9.58,5.79,14.22,2.58Z" style="fill: red;"/>
  <path d="M85.04,262.28c-4.64,3.21-5.79,9.58-2.58,14.22,3.21,4.64,9.58,5.79,14.22,2.58,4.64-3.21,5.79-9.58,2.58-14.22-3.21-4.64-9.58-5.79-14.22-2.58Z" style="fill: red;"/>
  <path d="M270.36,106.18c4.64-3.21,5.79-9.58,2.58-14.22-3.21-4.64-9.58-5.79-14.22-2.58-4.64,3.21-5.79,9.58-2.58,14.22,3.21,4.64,9.58,5.79,14.22,2.58Z" style="fill: red;"/>
  <path d="M518.48,147.27c4.64-3.21,5.79-9.58,2.58-14.22-3.21-4.64-9.58-5.79-14.22-2.58-4.64,3.21-5.79,9.58-2.58,14.22,3.21,4.64,9.58,5.79,14.22,2.58Z" style="fill: red;"/>
  <path d="M212.52,133.01c4.64-3.21,5.79-9.58,2.58-14.22-3.21-4.64-9.58-5.79-14.22-2.58-4.64,3.21-5.79,9.58-2.58,14.22s9.58,5.79,14.22,2.58Z" style="fill: red;"/>
  <path d="M468.68,516.65c-37.14-5.21-65.97-25.53-78.62-53.37-8.87-19.53-9.77-42.77,0-67.1.56-1.4,1.15-2.81,1.79-4.22.46-1.01.93-2.02,1.42-3.03v-.02c11.34-23.36,30.04-36.03,56.24-36.12,21.38-.08,41.8,19.59,44.9,33.57.54,1.77.8,3.66.83,5.6.12,8.06-3.84,17.01-8.81,21.98-7.76,7.78-16.69,4.41-25.06,7.31-.05,0-.08.03-.12.05-7.35,2.65-8.67,13.25-2.21,17.63.49.33,1,.61,1.53.83,18,7.34,33.42-.33,44.14-13.54,8.21-10.11,12.36-22,11.86-34.26-.25-6.22-1.7-12.53-4.42-18.76-22.59-51.69-88.58-53.92-123.18-13.63-14.03,16.34-21.26,39.12-29.31,59.85-3.66,9.41-6.76,18.96-10.33,28.25l21.12,33.79c5.95,8.51,12.51,16.1,19.62,22.95,11.57,11.15,24.57,20.33,38.79,28.18-6.65,7.68-21.16,13.38-38.79,16.88-18.73,3.71-40.99,4.92-61.14,3.31-22.56-1.79-42.47-7.1-51.8-16.35,19.93-5.08,37.24-13.34,51.8-24.66,6.86-5.33,13.1-11.33,18.72-18l-11.83-18.93c-2.07,3.08-4.35,6.08-6.89,8.97-1.89,2.15-3.91,4.24-6.1,6.26-40.09,36.92-97.86,33.24-130.24-10.22-21.19-28.43-10.48-72.3,20.62-87.88,1.4-.7,2.82-1.36,4.29-1.94,10.14-3.99,19.82-2.75,28.35,1.94,3.42,1.88,6.66,4.31,9.67,7.19,9.75,9.31,8.22,20.03,2.2,31.75-.73,1.41-.96,3.08-.89,4.88.21,7.25,8.35,11.58,14.74,8.17,1.67-.89,3.23-1.93,4.58-3.17,3.62-3.35,5.31-9.55,6.38-14.8,2.55-12.32.21-24.22-6.09-34.02-4.14-6.44-9.98-11.99-17.26-16.15-21.73-12.4-49.41-11.11-66.85,3.11-4.9,4-9.23,8.38-13.01,13.04-22.52,27.75-24.94,65.85-4,97.75,16.91,25.76,41.18,43.55,67.71,58.47,26.41,14.85,55.88,23.28,85.9,25.45,20.38,1.47,41.02.05,61.14-4.22,36.39-7.72,71.06-24.75,99.36-50.84-9.28-.83-15.04-1.11-20.74-1.91Z" style="fill: red;"/>
  <path d="M325.2,144.42c-54.14,1.59-98.57,25.9-135.2,63.88v.02c-34.43,35.7-53.64,76.38-58.93,122.51-2.22,19.4-1.98,39.77.64,61.14.39,3.21.82,6.43,1.32,9.69,3.06-3.55,5.79-6.74,8.31-9.69,5.11-5.97,9.36-10.96,13.74-15.82,37.62-41.77,92.6-43.3,132.35-3.76,5.89,5.86,10.44,12.51,13.68,19.58,10.32,22.54,7.1,49.35-10.18,68.49-13.78,15.27-35.78,18.77-52.28,8.32-13.6-8.63-17.32-25.94-6.19-41.74.2-.45.33-.92.44-1.41,1.41-7.07-5.94-13.13-12.81-10.96-.65.21-1.27.49-1.82.85-11.43,7.55-17.5,30.6-12.49,43.35,13.63,34.71,55.02,47.65,86.36,26.99,30.89-20.37,43.52-60.79,30.42-93.88-1.85-4.67-4.21-9.2-7.1-13.5-11.45-16.99-24.92-32.92-39.27-47.64-.55-.57-1.1-1.15-1.65-1.71-4.11-4.17-7.85-8.55-11.22-13.08l-33.36,2.13c-15.62,1.54-33.42,5.81-51.27,12.66-8.1,3.11-16.22,6.73-24.14,10.89-1.65-2.85-2.52-6.55-2.71-10.89-1.45-32.86,36.27-102.73,73.42-121.54h.02c-8.01,29.99-7.25,57.94,1.82,83.16l21.88-1.4c-20.33-48.25-5.08-103.78,49.99-122.77,10.39-3.59,20.42-4.78,29.95-3.71,14.08,1.58,27.07,8.11,38.49,19.2,14.36,13.93,17.83,32.39,13.46,51.93-3.55,15.91-16.34,23.03-30.13,23.65-7.06.32-14.95-4.11-21.83-10.23-.83-.74-1.65-1.5-2.45-2.28-1.11-.68-2.2-1.39-3.26-2.14-5.82-4.06-14.07-.64-14.66,6.43-.15,1.8-.12,3.58.18,5.29.91,5.2,5.93,10.49,10.43,14.12,3.06,2.46,6.34,4.44,9.75,5.96,20.46,9.16,46,2.14,61.14-15.15,5.25-6,9.26-13.23,11.36-21.46,5.4-21.12.32-42.91-11.36-60.33-13.54-20.21-35.95-34.54-61.14-35.15-1.23-.03-2.47-.04-3.72,0Z" style="fill: red;"/>
  <path d="M390.06,289.21c-18.18,11.09-40.37,15.82-61.14,11.03-4.09-.94-8.12-2.25-12.06-3.95l.02-.02c-29.7-12.86-42.92-48.7-27.37-74.13,9.34-15.26,26.14-18.96,39.41-11.41,4.08,2.32,7.83,5.69,10.91,10.14.24.36.53.7.82,1.03,6.46,7.23,17.85,2,16.81-7.64-.12-1.14-.38-2.23-.8-3.24-5.4-12.64-15.75-20.65-27.74-23.82-16.88-4.46-37.01.7-51.21,16.19-26.14,28.5-17.72,80.81,15.62,102.89,11.68,7.73,23.53,12.12,35.59,14.18,19.11,3.26,38.77.64,59.25-3.93.63-.14,1.26-.28,1.89-.41,10.07-2.22,20.46-4.26,30.87-5.58l12.33-23.48c-.06,0-.12.01-.18.02,13.95-24.61,23.08-53.96,23.14-87.5h0c30.29,6.16,80.5,80.92,79.4,127.51-23.67-19.2-47.29-34.52-74.04-39.2-.19.9-.49,1.78-.94,2.63l-9.81,18.67c3.37.18,6.71.49,10,.96,18.59,2.67,34.3,10.11,46.42,20.68,17.72,15.45,27.76,37.55,27.94,61.14.11,14.96-3.74,30.51-12.14,45.33-15.18,26.78-53.25,36.51-79.13,20.23-15.83-9.95-21.89-24.88-17.56-42.26,4.14-16.59,17.63-22.56,30.57-18,4.72-.53,7.8-2.65,9.42-5.3,3.14-5.17.69-12.38-6.22-13.81-10.78-3.52-25.73-.79-34.58,5.11-3.77,2.52-7.05,5.45-9.84,8.71-19.49,22.74-15.03,60.94,11.07,79.02,42.62,29.54,100.1,13.69,119.72-34.57,6.05-14.89,10.32-29.72,12.92-44.45,3.63-20.58,3.97-40.98,1.19-61.14-3.77-27.25-13.22-54.06-27.91-80.24-25.87-46.11-64.27-78.56-113.13-96.05,3.4,24.44,9.72,48.08,9.31,71.6-.46,26.64-16.66,49.57-38.81,63.07Z" style="fill: red;"/>
  <path d="M488.59,269.63c4.64-3.21,5.79-9.58,2.58-14.22-3.21-4.64-9.58-5.79-14.22-2.58-4.64,3.21-5.79,9.58-2.58,14.22,3.21,4.64,9.58,5.79,14.22,2.58Z" style="fill: red;"/>
  <path d="M368.58,532.94c4.64-3.21,5.79-9.58,2.58-14.22-3.21-4.64-9.58-5.79-14.22-2.58-4.64,3.21-5.79,9.58-2.58,14.22,3.21,4.64,9.58,5.79,14.22,2.58Z" style="fill: red;"/>
  <path d="M189.22,274c-4.64,3.21-5.79,9.58-2.58,14.22,3.21,4.64,9.58,5.79,14.22,2.58,4.64-3.21,5.79-9.58,2.58-14.22-3.21-4.64-9.58-5.79-14.22-2.58Z" style="fill: red;"/>
  <path d="M360.31,356.15c-2.5-1.74-4.46-3.96-5.69-6.72-.65-1.47-1.02-3.06-1.41-4.64-.58-2.32-1.08-4.67-2.3-6.78-4.03-6.94-11.3-10.54-18.86-9.49-1.09.15-2.13.38-3.12.67-1.35.4-2.6.94-3.75,1.62-2.9,1.72-5.16,4.32-6.61,7.89-1.47,3.59-1.53,7.31-.12,10.98,1.62,4.22,4.55,7.07,8.9,8.31,2.43.7,4.84.52,7.2-.42,3.41-1.36,5.55-3.82,6.47-7.35.99-3.74-1.09-7.82-4.73-9.11-2.58-.91-5.37-.06-6.43,2.29-.44.97-.41,1.96.17,2.88.53.85,1.43,1,2.15.33.64-.59,1.27-1,2.14-.5.73.42,1.06,1.46.88,2.46-.5,2.73-3.26,4-5.66,3.55-3.41-.65-5.69-3.38-5.78-7.07-.09-4.14,1.76-7.17,5.38-9.16,4.97-2.73,11.33-.94,14.71,3.03,4.91,5.79,4.64,13.68-.11,19.41-1.44,1.74-3.14,3.26-4.73,4.87l-.02-.03c-2.62,2.62-4.03,5.88-4.79,9.43-.62,2.9-.56,5.79.17,8.69,1.88,7.54,9.14,13.25,16.89,13.15,6.63-.09,12.95-4.82,14.36-11.67,1.15-5.66-1.86-11.37-7.16-13.57-4.64-1.93-9.84.59-11.77,4.49-1.14,2.3-.47,5.61,1.46,7.32,1.58,1.39,4.2,1.39,5.43-.02.92-1.06.61-2.27-.74-2.65-.62-.18-1.06-.5-1.17-1.2-.12-.76.15-1.32.77-1.73,2.3-1.52,5.28-.58,6.57,2,1.53,3.05.05,6.87-2.23,8.72-4.22,3.43-10.13,2.27-13.68-1.58-3.2-3.49-3.94-7.64-2.58-12.14.89-2.94,2.7-5.25,5.17-7.05,3.35-2.46,7.05-3.53,11.16-2.77,2.24.41,4.43,1.11,6.66,1.65,3.96.99,7.85.96,11.69-.59,5.09-2.05,8.87-5.47,10.9-10.63,1.46-3.68,1.56-7.46.36-11.25-.33-1.06-.82-2.09-1.11-2.84-3.06-5.08-7.14-8.02-12.86-8.25-5.12-.2-10.39,2.84-12.36,7.75-1.3,3.27-1.14,6.57.76,9.58,1.59,2.55,3.84,4.28,7,4.4,3.18.12,6.34-2.14,7.02-5.02.41-1.73-.44-3.64-2-4.46-.7-.36-1.38-.35-2.08.03-.55.3-.79.77-.65,1.38.17.77.29,1.52-.52,2-.8.49-1.64.36-2.43-.11-1.33-.77-2.12-2.65-1.77-4.22.73-3.32,3.62-5.35,7.25-4.96,3.28.35,5.72,2,7.22,4.96,2.05,4.06,1.32,7.9-1.23,11.42-4.08,5.64-12.25,7.02-18.42,2.71Z" style="fill: red;"/>
</svg>