<?xml version="1.0" encoding="UTF-8"?>
<svg id="b" data-name="Layer 2" xmlns="http://www.w3.org/2000/svg" width="426.15" height="425.85" viewBox="0 0 426.15 425.85">
  <g id="c" data-name="Layer 1">
    <g>
      <path d="M179.45,248.25c-3.96.85.18,9.47,4.47,7.99,1.17-2.47-1.86-8.55-4.47-7.99Z" style="fill: #f0f;"/>
      <path d="M183.07,242.61l1.5,1.49,4.35.15.55-8.99c-6.54-5.87-7.42,1.48-6.4,7.35Z" style="fill: #f0f;"/>
      <path d="M200.9,261.25l-.43-7.07-5.56-.94c-.56,4.98.31,8.69,5.99,8.01Z" style="fill: #f0f;"/>
      <path d="M186.85,257.56l5.06,1.68c1.78-8.99-7.97-11.81-5.06-1.68Z" style="fill: #f0f;"/>
      <path d="M158.74,360.94c-2.89-1.36-9.31-6.12-11.51-6.56-4.38-.88-6.98,3.81-11.25,3.86-1.43,1.55,6.65,5.89,7.95,6.53,7.43,3.69,19.26,7.14,27.56,6.51,5.23-.4,6.33-1.89,1.26-4.36-4.39-2.14-9.49-3.85-14.01-5.98Z" style="fill: #f0f;"/>
      <path d="M193,244.66c4.3,6.12,10.46-5.45,3.48-8.48-1.43-.62-2.97-1.03-4.55-.93.12,2.88-.64,6.97,1.07,9.41Z" style="fill: #f0f;"/>
      <path d="M204.84,261.8l6.62-.5.29-6.92c-7.14-3.44-9.89.66-6.91,7.41Z" style="fill: #f0f;"/>
      <path d="M182.92,329.24l1.86-25.27c-12.17-12.2-17.22-22.04-13.16-39.54.39-1.66,2.04-3.04,2.31-4.77,1-6.59-2.41-12.9-4.52-18.38-.86-2.24.11-9.15-4.76-7.92-1.8.45-8.91,10.73-10.13,12.94-12.83,23.12-8.84,51.66,8.92,70.94,2.42,2.63,16.65,14.76,19.49,11.99Z" style="fill: #f0f;"/>
      <path d="M211.76,239.39l-9.85-1.15.91,8.6c1.83,2.33,6.39,1.2,9.09,1.41l-.14-8.86Z" style="fill: #f0f;"/>
      <path d="M173.36,234.22l1.52,6.62,4.9-.74c1.27-5.34-.91-9.01-6.41-5.87Z" style="fill: #f0f;"/>
      <path d="M240.9,268.77c1.05-.82,9.06-8.54,7.96-9.52-6.11.95-11.83,3.44-17.94,4.53-17.05,3.04-35.75,2.09-51.49-5.53-1.12,4.42,5.91,10.29,9.61,12.38,12.22,6.88,40.72,6.85,51.86-1.86Z" style="fill: #f0f;"/>
      <path d="M206.72,293.56c1.01-1.62,4.72-12.73,4.18-13.31-9.89-1.18-19.03-2.08-27.4-7.99-8.13,9.7-8.73,16.18,1.04,24.9,2.98-1.54,7.56-2.9,10.93-2.96,3.8-.06,9.04,2.88,11.25-.65Z" style="fill: #f0f;"/>
      <path d="M222.5,414.26v11.58c52.91-2.3,100.81-23.89,136.85-57.92l-7.8-7.8c-34.2,31.77-79.33,51.93-129.05,54.13Z" style="fill: #f0f;"/>
      <path d="M203.93,8.38V0c-50.56,2.14-96.56,21.88-132.03,53.27l6.43,6.43C112.05,29.63,155.83,10.6,203.93,8.38Z" style="fill: #f0f;"/>
      <path d="M64.85,72.89l-6.52-6.52C25.21,101.34,3.82,147.52.43,198.63h10.22c3-48.44,23.04-92.33,54.2-125.74Z" style="fill: #f0f;"/>
      <path d="M10.35,217.48H0c1.1,52.47,21.16,100.26,53.6,136.83l8.07-8.07c-30.69-34.48-49.84-79.44-51.32-128.77Z" style="fill: #f0f;"/>
      <path d="M348.54,59.76l6.12-6.12C319.3,22.17,273.38,2.31,222.88.02v8.36c48.13,2.22,91.93,21.27,125.66,51.38Z" style="fill: #f0f;"/>
      <path d="M416.18,198.91h9.57c-3.31-50.99-24.55-97.09-57.48-132.06l-6.18,6.18c31.14,33.46,51.16,77.4,54.09,125.88Z" style="fill: #f0f;"/>
      <path d="M203.65,392.3c-11.68-.93-23.26-2.42-34.71-5.09l17.99-3.47c1.2-1,1.17-1.05,0-2.02-3.12-2.57-10.45-1.87-14.25-2.73-8.99-2.03-21.04-5.74-29.37-9.6-5.16-2.39-12.3-8.7-17.56-7.96-4.08.58-8.74,5.34-11.75-.19,14.14-3.65,28.19-8.37,40.98-15.49,2.36-1.31,20.39-12.36,18.95-14.47-8.99-4.19-16.24-11.98-21.58-20.13-17.76,9.26-36.65,17.16-56.85,19.06-2.8.26-12.72.98-14.85.74-5.49-.62-5.83-6.31,1.39-4.72-3.84-19.33-2.38-40.83,5.49-58.99,1.91-4.41,11.36-15.73,3.51-19.49-7.26-3.48-11.77,5.16-14.8,10.19-4.61,7.65-12.18,27.2-12.18,35.8v17.5c-8.34-11.26-15.34-25.23-20-38.48-1.47-4.17-5.89-15.94-4.45-19.47.91-2.26,9.29-9.12,7.47-11.04-4.2-.81-12.18-.28-11.99-6,4.47-.15,21.3,6.19,23.96,4.52.75-.47,2.8-4,4.53-5.5,5.27-4.58,11.35-8.01,17.01-12.03l.45-14.99-46.53-4.93c-1.37-7.33.37-14.76,1.71-21.93l10.62-2.38c.29-3.61,3.77-7.08,4.24-10.26.3-2.04-.17-1.31-1.48-1.49-3.15-.45-7.58-.25-10.51,1-2.71-8.11,13.56-4.44,15.09-6.59l1.88-7.4h-12.98s4.08-12.93,4.08-12.93c32.66,3.15,66.97-.48,96.8-14.57l-9.43-12.15c-25.81,7.54-52.47,11.87-79.46,11.64l2.5-2.99c24.87-.69,50.24-3.07,73.42-12.52l-7.5-7.49c-19.34,5.3-39.32,8.23-59.42,8l8.49-11.99-.51,8,12.77-1.21c3.43-2.46-.25-23.39,5.72-26.78l-.5,26.99,12.81-2.17c.61-5.93,1.77-12.43,2.16-18.33.43-6.54-1.5-14.79,1.52-20.48l2.42,10.64-.47,7.32c17.72,13.9,31.76,31.14,44.49,49.59l1.35.35c7.6-5.82,15.99-11.27,25.62-12.93.81-.95-4.12-8.72-5.15-10.33-4.81-7.47-12.36-17.02-18.31-23.67-10.25-11.45-22.35-21.1-34.46-30.48,14.28-9.7,30.85-15.72,47.35-20.42,5.17,10.02,9.9,21.8,19.08,28.67l9.59-9.24-12.1-22.5,2.97-1c.85,3.6,10.27,20.47,13.38,19.92l8.5-7.56-6.86-13.36s.01,0,.02,0v-10.87C102.36,24.36,21.26,108.54,21.26,211.32s80.96,186.81,182.39,191.9v-10.92Z" style="fill: #f0f;"/>
      <path d="M320.81,107.75c-1.37-1.15-21.79-6.51-25.95-8.03-14.51-5.3-28.22-12.51-41.31-20.64-2.6-1.61-12.31-9.99-14.55-8.68l-7.1,8.4,10.05,7.88c24.42,15.4,51.55,25.77,79.83,31.58-.4-2.72,1.07-8.81-.97-10.51Z" style="fill: #f0f;"/>
      <path d="M74.84,359.73l-8.12,8.12c36.05,34.07,83.98,55.69,136.93,57.99v-11.61c-49.67-2.36-94.71-22.64-128.82-54.5Z" style="fill: #f0f;"/>
      <path d="M218.02,91.92c-.3,1.34.8,1.57,1.48,2.21,2.56,2.42,11.95,8.37,15.45,10.54,27.43,16.99,59.92,29.56,91.82,34.58l-3.17-16.81c-33.47-7.71-66.09-20.4-94.38-40.02-1.87-.37-11.17,7.79-11.21,9.5Z" style="fill: #f0f;"/>
      <path d="M314.78,181.74c18.83-16.21,43.12-20.59,67.48-18.52.05,0,.1,0,.15.01-1.01-3.06-2.2-6.06-3.57-8.98h-25.59c-14.89,0-49.06,16.31-55.19,30.75-2.83,6.67-4.29,19.88,6.2,19.28,10.38-.59,17.22-11.63,25.18-16.86,14.98-9.84,38.74-9.57,57.22-6.31l-1.92-9.19c-.33-1.58-.71-3.15-1.13-4.71-27.21-2.99-54.86,5.36-75.81,23.03-1.04-1.16,5.85-7.54,6.97-8.51Z" style="fill: #f0f;"/>
      <path d="M223.74,261.09c.64-1.01.41-6.57-.78-7.42-2.69-1.91-7.96.17-8.05,4.16-.12,5.1,7.67,5.11,8.83,3.26Z" style="fill: #f0f;"/>
      <path d="M182.71,122.43c-1.95.17-7.49,1.81-9.57,2.54-4.12,1.45-21.21,10.89-20.04,15.55.16.63,5.37,8.98,5.83,9.28,1.5.97,1.51.23,2.55-.5,9.05-6.38,16.52-14.22,28.02-16.99,1.07-1.48-3.45-10.17-6.79-9.88Z" style="fill: #f0f;"/>
      <path d="M182.42,197.29c3.03.86,7.09,1.26,9.25-1.7,1.94-2.65,1.73-7.18-.49-10.54-1.36-2.06-4.58-5.29-10.9-3.83-2.66.62-3.68,3.68-3.74,6.34-.1,3.98,1.89,8.59,5.88,9.72Z" style="fill: #f0f;"/>
      <path d="M416.45,217.86c-1.57,49.35-20.82,94.31-51.62,128.74l7.72,7.72c32.37-36.48,52.42-84.14,53.61-136.46h-9.7Z" style="fill: #f0f;"/>
      <path d="M120.97,284.73c2.07-5.75,9.26-14.74,6.07-20.05-6.1-10.17-14.78,3.11-17.57,8.54-5.94,11.55-8.13,25.54-6.34,38.4,1.91,13.74,3.61,14.66,16.74,9.5-.27-7.17-3.29-13.84-2.76-21.24.31-4.29,2.37-10.98,3.87-15.14Z" style="fill: #f0f;"/>
      <path d="M112.39,261.14c3.03-6.74-2.11-13.47-9.37-10.37-4.79,2.04-13.96,23.86-15.52,29.46-4.26,15.31-4.98,30.43.48,45.6l1.48,1.01,12.54-1.61c-6.47-21.62-3.15-39.27,6.6-58.88.85-1.71,2.86-3.16,3.79-5.21Z" style="fill: #f0f;"/>
      <path d="M160.91,158.72c-4.08,7.04-6.39,16.03-6.57,25.02h7.29c.7-8.83,5.91-16.56,17.05-18.23,30.56-4.56,41.28,43.6,11.5,48.49-13.48,2.21-23.52-7.56-27.15-18.93h-7.73c1.09,5.54,3.13,10.75,6.21,15.1,1.98,2.8,5.11,4.7,7.07,7.79h33.4c1.58-3.78,4.66-7.47,6.43-10.72,5.1,1.08.62,7.34.92,10.54.18,1.91,2.46,3.11,2.66,5.95.4,5.84-4.24,9.02-8.53,4.44-1.4-1.49-2.12-3.01-2.37-4.55h-30.5c.31,1.71.52,3.36,1.28,5.17,17.42.83,33.76,8.7,51.43,6.35,5.4-.72,11.95-3.9,18.19-4.79,4.66-.67,9.67.21,14.31-1.17-.2-2.05,0-3.87.47-5.55h-30.56c-1.07,4.56-5.24,9.31-8.87,5.15-4.7-5.39.9-7.25,1.14-11.03.19-2.92-1.56-6.08-2-8.94.31-1.45,3.28-2.12,3.9-1.58.14.12.17,2.24.95,3.53,1.93,3.2,3.91,4.37,4.74,7.2h33.54c3.18-4.5,7.79-8.34,10.23-13.73,1.26-2.78,2.18-5.88,2.79-9.16h-7.21c-1.28,4.07-3.68,8.12-7.42,11.81-25.2,24.88-55.73-16.42-26.55-37.08,16.54-11.71,32.41-.91,34.81,13.93h7.24c-.25-10.46-3.24-21.17-8.73-28.4-20.77-27.36-85.64-27.17-103.35,3.38Z" style="fill: #f0f;"/>
      <path d="M258.44,183.75h4.2c-2.14-13.34-18.11-21.72-31.43-10.15-2.27,1.97-7.52,9.48-8.11,12.38-5.02,24.79,22.29,33.2,35.57,13.61,1.02-1.5,1.81-3.01,2.45-4.5h-3.67c-.97,2.35-2.37,4.49-4.14,6.2-3.43,3.31-7.75,5.05-12.02,5.05-2.25,0-4.49-.49-6.59-1.48-5.92-2.82-9.22-9.03-8.61-16.22.55-6.47,5.56-12.5,12.46-15.03,5.96-2.18,11.92-1.06,15.96,2.98,1.94,1.94,3.26,4.4,3.92,7.16Z" style="fill: #f0f;"/>
      <path d="M169.79,195.08h-3.35c3.56,9.64,12.76,17.59,25.75,14.94,3.1-.63,9.77-6.17,10.97-9.02,6.21-14.77-5.95-33.92-22.42-32.49-10.02.87-14.96,7.5-15.8,15.24h3.62c1.52-5.1,6.52-10.03,11.54-11.05,8.46-1.72,15.52,3.74,18.76,9.91,3.68,7,2.72,14.74-2.44,19.71-2.84,2.73-6.32,4.13-9.99,4.13-2.45,0-4.98-.62-7.46-1.88-4.09-2.08-7.32-5.54-9.17-9.49Z" style="fill: #f0f;"/>
      <path d="M240.32,181.25c-4.13,1.06-6.24,6.59-5.63,11.09.31,2.28,1.62,6.08,6.51,5.99,5.26-.11,7.66-4.17,8.45-5.91,1.58-3.48,1.39-7.46-.47-9.67-2.15-2.57-6.01-2.24-8.86-1.5Z" style="fill: #f0f;"/>
      <path d="M142.96,219.27c-5.02-1.61-35.31-10.05-37.85-7.9-2.46,7.05-.32,14.06,1.47,20.92-5.87,3.2-12.94,4.48-18.3,8.67-.82.64-1.83-.02-1.26,2.29,6.39-.91,7.63,2.46,10.5,7h1.46c.73-4.57,8.18-4.7,11.76-3.23,5.27,2.16,5.89,9.82,7.21,10.83.82.63,2.76-.47,4.07-.15,4.85,1.2,6.8,3.54,9.45,7.53,10.95-8.31,5.83-8.9,4.58-18.56-.7-5.41-.51-13.14,1.74-18.09,1.02-2.24,6.38-7.54,5.16-9.31Z" style="fill: #f0f;"/>
      <path d="M76.03,146.26l-12.89.09-23.07,54.89c4.05-.79,11.2,2.97,14.5.02,1.13-1.01,5.29-9.55,6.34-11.65,2.35-4.73,16.96-41.62,15.12-43.35Z" style="fill: #f0f;"/>
      <path d="M109.32,182.43c-3.11-2.02-17.51-9.69-20.34-7.74l-1.89,5.94c3.71,2.78,8.14,4.38,11.83,7.21,6.07,4.65,21.27,22.39,30.02,14.88,6.4-10.92-1.23-21.7-9.38-29.04-7.08-6.37-16.16-11.33-25.51-13.39l-1.94,8.87c11.09,4.07,22.14,12.33,28.87,22.09-.82.78-10.01-7.74-11.66-8.81Z" style="fill: #f0f;"/>
      <path d="M224.87,324.24c.5,10.32,2.57,20.05,2,30.48-.32,5.73-6.04,20.42,5.99,14.99,4.46-2.01,5.74-13.4,6.05-17.94.79-11.44.87-29.69,0-41.07-1.71-22.25-13.79-6.52-25.52-6.66-10.05-.11-22.83-15.09-24.5,4.66-.81,9.65-1.14,48.81,2.14,55.92,2.46,5.34,5.02,6.28,10.88,5.61-.76-15.45-2.9-32.09,1.5-47.01,2.28.05,1.33,23.5,1.51,26.5.25,4.31.95,13.89,2.49,17.51,1.02,2.42,3.02,4.46,5.2,5.86,12.24,3.16,8.81-33.21,9.3-39.34.19-2.39.91-8.18,2.97-9.51Z" style="fill: #f0f;"/>
      <path d="M65.04,243.24c3.13-.24,7.37,2.64,10.27,1.86.76-.2,8.88-7.42,11.18-8.88,4.19-2.66,8.92-4.28,13.08-6.97l-.62-18.95-11.8-.91c-2.71,5.96-1.42,10.8-.57,16.87-5.52,3.03-11.23,5.84-16.02,10.02-1.03.9-6.59,5.79-5.52,6.96Z" style="fill: #f0f;"/>
      <path d="M222.88,19.4v10.87c-11.74,25.51-38.79,40.91-60.94,56.52l7.44,8.47c21.85-10.62,44.88-26.78,59.47-46.52,3.69-4.99,5.95-11.62,9.14-15.85,1.27-1.68,1.62-1.93,3.86-1.63-12.68,31.95-42.9,51.2-70.91,68.49l9.46,11.22c31.25-17,64.11-40.94,76.53-75.61,3.25-2.83,44.56,14.78,49.86,19.4-5.95,4.67-12.35,8.95-17.99,13.99-3.53,3.15-12.62,11.56-15,14.98-.72,1.03-1.49,1.07-.5,2.56,1.22,1.86,26.47,12.41,28.8,11.82,5.62-5.09,11.24-10.18,17.37-14.67,2.49-1.83,12.86-9.93,15.27-8.73,7.23,3.58,4.42,11.76,5.03,18.04,1.93,19.82,6.17,39.44,12.07,58.41l12.9-.91-10.5-54.98,11.49,14.51-5.91,3.11,2.02,9.28c4.42.74,9.93-1.71,12.88,2.61.42,2.25-.98,1.39-2.47,1.49-2.24.15-8.87-.92-9.46,1.57-.15.63,3.06,11.54,3.51,12.41,2.2,4.17,12.38-.38,16.28,1.16l5.12,13.37s0,0,0,0c5.27,12.88,7.29,32.03,7.37,34.5v-.03c1.05,7.97-.28,16.05,1.62,24.01-7.28-8.49-12.28-19.71-17.96-29.51l-14.01.03c3.52,9.75,8.53,20.19,13.83,29.15,4.16,7.02,11.13,14.61,14.81,21.17.77,1.38,1.73,2.33,1.34,4.15-1.82.3-2.97-1.27-3.99-2.49-4.62-5.55-11.49-16.26-15.35-22.63-5.6-9.24-10.05-19.33-15.11-28.87-3.18-2.84-9.51.84-13.5.01,9.02,26.88,24.54,51.77,43.76,72.62-5.67,20.55-14.21,41.91-27.77,58.36,2.1-19.37-1.12-38.8-10.56-55.93-3.14-5.69-11.37-18.93-17.87-9.01-3.85,5.87,1.67,9.38,4.15,14.74,9.07,19.58,11.55,41.49,5.99,62.41-2.64,9.95-7.6,21.63-17.69,25.78,15.81-21.61,21.43-53.87,11.46-78.95-1.84-4.63-7.04-15.27-9.61-19.38-5.43-8.69-15.99-4.18-14.85,3.78.37,2.6,8.63,14.53,10.48,19.59,19.37,52.95-21.53,89.72-69.15,100.73-3.68.85-12.18.16-14.77,3.22-.59.69-1.05,1.78.03,2.01l20.46,2.99-30.42,5.05-7.92.37v10.6c101.74-4.77,183.05-89.03,183.05-191.93S324.45,24.36,222.88,19.4Z" style="fill: #f0f;"/>
      <path d="M93.82,146.52l-1.26-2.11-11.99,2.88-21.53,55.47,12.42,1.31c10.6-17.26,16.88-38,22.37-57.55Z" style="fill: #f0f;"/>
      <path d="M224.45,247.31l.44-9.07-8.86,1.15-.14,8.86c2.17-.26,7.34.82,8.56-.94Z" style="fill: #f0f;"/>
      <path d="M223.41,295.28c2.36.4,4.29-.96,6.13-.97,4.11-.02,9.49.19,12.85,2.66,1.25-.03,8-8.84,8.32-10.47.79-4-4.81-10.33-6.37-14.27-8.4,5.92-17.54,6.83-27.46,8.01.92,3.73,2.27,14.31,6.53,15.04Z" style="fill: #f0f;"/>
      <path d="M228.03,245.09c1.67.8,5.12,2.09,6.4.2l.44-10.05c-7.23.07-7.87,3.29-6.84,9.85Z" style="fill: #f0f;"/>
      <path d="M262.21,233.33c-4.03.89-2.66,5.62-4.61,9.17-1.11,2.02-3.45,3.14-3.77,5.3-1.2,8.04.84,12.23,2.56,19.41,1.71,7.15,1.47,12.1-1.01,19.05-2.56,7.18-7.62,11.94-12.52,17.47l2.01,26.51c37.61-15.79,48.27-69.09,17.33-96.9Z" style="fill: #f0f;"/>
      <path d="M237.98,234.35l.04,8.74c6.57,3.65,7.48-3.42,6.72-8.71l-6.76-.03Z" style="fill: #f0f;"/>
      <path d="M226.89,261.25c5.46.9,6.3-3.55,5.99-8l-5.56.93-.43,7.07Z" style="fill: #f0f;"/>
      <path d="M234.88,259.24c5.11.38,8.36-3.97,4.48-7.99-2.62-.55-4.83,5.87-4.48,7.99Z" style="fill: #f0f;"/>
      <path d="M335.28,77.27l-11.51,7.7c-.8,14.38,1.31,28.5,4.31,42.49.84,3.93,5.64,23.88,7.19,25.8,2,2.48,9.38-1.13,12.42-1.09,1.14-1.35-4.74-20.43-5.45-23.89-3.46-16.82-5.41-33.93-6.95-51.02Z" style="fill: #f0f;"/>
      <path d="M253.85,233.25l-6.88,1.1.88,5.42c6.44,4.03,6.43-1.17,6.01-6.52Z" style="fill: #f0f;"/>
      <path d="M243.87,256.25c2.13,1.99,7.01-4.93,4.98-8-3.81-.86-7.5,5.64-4.98,8Z" style="fill: #f0f;"/>
      <path d="M259.39,371.27c45.11-1.6,79.61-53.32,60.13-95.26-2.45-5.27-8.33-15.95-14.98-14.59-3.13.64-5.81,5.32-5.49,8.19.15,1.35,5.38,9.47,6.51,12.37,11.91,30.52-5.3,61.01-32.06,76.42-5.5,3.17-16.56,6.17-20.58,9.4-4.32,3.46,4.48,3.55,6.47,3.47Z" style="fill: #f0f;"/>
      <path d="M275.83,128.27c-8.02-1.17-16.75-8.73-23.96-10.58-1.93-.49-2.69-.77-4,1.08l16.65,8.31,8.82,6.15,2.49-4.97Z" style="fill: #f0f;"/>
      <path d="M253.86,331.25c-.33,1.4.21,1.64.97,2.51,2.25,2.57,23.07,15.66,25.32,15.27,4.61-1.74,21.37-21.86,20.63-25.23l-25.23-12.46c-6.88,6.92-12.44,15.88-21.68,19.91Z" style="fill: #f0f;"/>
      <path d="M361.76,242.75c1.67-1.12.6-1.08,0-2.01-3.58-5.52-14.97-11-20.54-14.51.31-5.54,1.64-11.5-.59-16.84l-12.85.86c1.54,6.34-.34,12.58-.56,19,4.2,2.73,9.17,3.98,13.42,6.64,2.81,1.76,9.58,8.82,10.85,9.19,2,.58,8.56-1.18,10.28-2.33Z" style="fill: #f0f;"/>
      <path d="M238.29,132.3c5.47,2.46,11.09,4.68,16.23,7.79,4.66,2.82,7.81,6.39,11.79,9.2.88.62,1.4,1.7,2.56.5l5.53-10.54c-7.98-9.29-18.73-15.09-30.92-16.75-2.34.44-6.25,8.49-5.19,9.8Z" style="fill: #f0f;"/>
      <path d="M370.74,240.24l-17.14-31.83-7.84-.16,1.47,16.03c4.46-.16,21.91,17.52,23.5,15.96Z" style="fill: #f0f;"/>
      <path d="M329.28,250.23c3.04-4.04,5.92-7.35,11.49-6.99.56-2.31-.45-1.64-1.27-2.28-4.73-3.73-12.79-6.62-18.72-7.72-.95-1.04,2-6.45,2-7.49v-14.5c-7.67.35-16.33,1.79-23.82,3.66-2.53.63-15.14,3.93-15.13,5.84,9.71,9.17,9.54,24.42,4.26,36.01l7.27,7.45c1.61.36,3.19-3.77,5.72-5.17,2.76-1.52,7.48-1.34,8.51-1.98.79-.5,1.89-5.79,3.15-7.34,3.82-4.69,12.84-4.61,16.52.52Z" style="fill: #f0f;"/>
    </g>
  </g>
</svg>